<svg width="47" height="47" viewBox="0 0 47 47" fill="none" xmlns="http://www.w3.org/2000/svg">
<circle cx="23.0693" cy="23.0693" r="21.0693" stroke="#003300" stroke-width="4"/>
<path d="M22.9755 9.70016C21.0955 9.70016 19.2924 10.447 17.963 11.7764C16.6337 13.1058 15.8868 14.9088 15.8868 16.7888C15.8868 18.6689 16.6337 20.4719 17.963 21.8013C19.2924 23.1307 21.0955 23.8775 22.9755 23.8775C24.8555 23.8775 26.6586 23.1307 27.9879 21.8013C29.3173 20.4719 30.0642 18.6689 30.0642 16.7888C30.0642 14.9088 29.3173 13.1058 27.9879 11.7764C26.6586 10.447 24.8555 9.70016 22.9755 9.70016ZM14.1306 25.6497C13.6639 25.6478 13.2014 25.7381 12.7696 25.9154C12.3379 26.0926 11.9453 26.3534 11.6146 26.6826C11.2838 27.0119 11.0213 27.4033 10.8421 27.8342C10.6629 28.2652 10.5705 28.7273 10.5703 29.194C10.5703 32.1907 12.0465 34.4503 14.3539 35.9229C16.6258 37.3708 19.6881 38.0548 22.9755 38.0548C24.8558 38.0548 26.6634 37.8316 28.292 37.3672V33.8814C27.148 32.5882 26.5175 30.9206 26.5198 29.194C26.5198 27.9039 26.8654 26.6952 27.4679 25.6514L14.1306 25.6497Z" fill="#003300"/>
<path d="M35.268 37.2465L37.8668 34.6478C38.0659 34.4474 38.1777 34.1764 38.1777 33.8939C38.1777 33.6113 38.0659 33.3403 37.8668 33.1399L31.8993 27.1725C31.7994 27.0734 31.6809 26.9949 31.5506 26.9417C31.4203 26.8885 31.2808 26.8615 31.14 26.8623H28.552C28.2684 26.8623 27.9963 26.975 27.7958 27.1756C27.5952 27.3761 27.4826 27.6481 27.4826 27.9318V30.5198C27.4817 30.6605 27.5087 30.8001 27.5619 30.9304C27.6152 31.0607 27.6936 31.1792 27.7927 31.2791L33.7601 37.2465C33.9605 37.4457 34.2316 37.5575 34.5141 37.5575C34.7966 37.5575 35.0677 37.4457 35.268 37.2465ZM29.6214 30.0706V29.0012H30.6909L35.5889 33.8992L34.5194 34.9686L29.6214 30.0706Z" fill="#003300"/>
</svg>
