<svg width="40" height="30" viewBox="0 0 40 30" fill="none" xmlns="http://www.w3.org/2000/svg">
<g clip-path="url(#clip0_304_596)">
<path d="M40.0862 12.1959C40.0154 11.9843 39.9878 11.7606 40.005 11.5382C40.0222 11.3157 40.0839 11.099 40.1864 10.9008C40.2889 10.7026 40.4302 10.5271 40.6018 10.3845C40.7735 10.242 40.972 10.1353 41.1856 10.0709C41.3992 10.0065 41.6236 9.98568 41.8455 10.0096C42.0673 10.0336 42.2821 10.1018 42.477 10.2103C42.672 10.3188 42.8432 10.4653 42.9805 10.6412C43.1178 10.8171 43.2184 11.0187 43.2762 11.2342C46.7529 22.8775 63.2463 22.8792 66.7263 11.2409C66.7886 11.031 66.8917 10.8354 67.0297 10.6654C67.1676 10.4953 67.3377 10.3541 67.5303 10.2498C67.7228 10.1455 67.934 10.0801 68.1518 10.0574C68.3696 10.0347 68.5897 10.0552 68.7996 10.1175C69.0095 10.1799 69.205 10.283 69.3751 10.421C69.5451 10.5589 69.6863 10.729 69.7907 10.9216C69.895 11.1141 69.9603 11.3253 69.983 11.5431C70.0057 11.7608 69.9853 11.981 69.9229 12.1909C69.3165 14.2762 68.288 16.2146 66.9013 17.8859L69.0263 20.0125C69.3298 20.3269 69.4978 20.7479 69.494 21.1849C69.4902 21.6219 69.315 22.0399 69.006 22.3489C68.6969 22.6579 68.2789 22.8332 67.8419 22.837C67.4049 22.8408 66.9839 22.6728 66.6696 22.3692L64.4846 20.1842C63.3053 21.0734 62.0028 21.7859 60.6179 22.2992L61.2129 24.5242C61.2764 24.7376 61.2965 24.9616 61.2719 25.1829C61.2474 25.4042 61.1788 25.6183 61.0701 25.8127C60.9615 26.007 60.815 26.1776 60.6393 26.3144C60.4636 26.4512 60.2623 26.5514 60.0472 26.6091C59.8322 26.6668 59.6077 26.6808 59.3872 26.6503C59.1666 26.6198 58.9544 26.5454 58.7631 26.4316C58.5717 26.3177 58.4052 26.1666 58.2732 25.9873C58.1412 25.808 58.0464 25.6041 57.9946 25.3875L57.3879 23.1259C55.8096 23.3592 54.1962 23.3592 52.6179 23.1259L52.0112 25.3875C51.9594 25.6041 51.8647 25.808 51.7327 25.9873C51.6007 26.1666 51.4341 26.3177 51.2428 26.4316C51.0514 26.5454 50.8392 26.6198 50.6186 26.6503C50.3981 26.6808 50.1737 26.6668 49.9586 26.6091C49.7435 26.5514 49.5422 26.4512 49.3665 26.3144C49.1909 26.1776 49.0444 26.007 48.9357 25.8127C48.827 25.6183 48.7584 25.4042 48.7339 25.1829C48.7094 24.9616 48.7294 24.7376 48.7929 24.5242L49.3879 22.2992C48.003 21.7853 46.7004 21.0723 45.5212 20.1825L43.3379 22.3692C43.0254 22.6822 42.6014 22.8581 42.1591 22.8585C41.7168 22.8588 41.2925 22.6834 40.9796 22.3709C40.6666 22.0584 40.4906 21.6343 40.4903 21.192C40.49 20.7498 40.6654 20.3255 40.9779 20.0125L43.1029 17.8875C41.7962 16.3275 40.7529 14.4309 40.0829 12.1975L40.0862 12.1959Z" fill="black"/>
<path d="M1.66667 2.11667L3.8 0L31.6667 27.8667L29.55 30L24.4167 24.8667C22.5 25.5 20.4667 25.8333 18.3333 25.8333C10 25.8333 2.88333 20.65 0 13.3333C1.15 10.4 2.98333 7.81667 5.31667 5.76667L1.66667 2.11667ZM18.3333 8.33333C19.6594 8.33333 20.9312 8.86012 21.8689 9.7978C22.8066 10.7355 23.3333 12.0073 23.3333 13.3333C23.3342 13.9009 23.2384 14.4646 23.05 15L16.6667 8.61667C17.2021 8.4283 17.7657 8.33249 18.3333 8.33333ZM18.3333 0.833333C26.6667 0.833333 33.7833 6.01667 36.6667 13.3333C35.3064 16.7887 32.9949 19.7879 30 21.9833L27.6333 19.6C29.9381 18.0056 31.797 15.8484 33.0333 13.3333C31.6859 10.5832 29.594 8.26628 26.9955 6.64584C24.3969 5.0254 21.3958 4.16646 18.3333 4.16667C16.5167 4.16667 14.7333 4.46667 13.0667 5L10.5 2.45C12.9 1.41667 15.55 0.833333 18.3333 0.833333ZM3.63333 13.3333C4.98073 16.0834 7.07262 18.4004 9.67122 20.0208C12.2698 21.6413 15.2709 22.5002 18.3333 22.5C19.4833 22.5 20.6167 22.3833 21.6667 22.15L17.8667 18.3333C16.7069 18.209 15.6247 17.6915 14.8 16.8667C13.9752 16.042 13.4576 14.9597 13.3333 13.8L7.66667 8.11667C6.01667 9.53333 4.63333 11.3 3.63333 13.3333Z" fill="black"/>
</g>
<defs>
<clipPath id="clip0_304_596">
<rect width="40" height="30" rx="12" fill="white"/>
</clipPath>
</defs>
</svg>
