<svg width="132" height="33" viewBox="0 0 132 33" fill="none" xmlns="http://www.w3.org/2000/svg">
<path d="M12.8 6H21.2C24.4 6 27 8.6 27 11.8V20.2C27 21.7383 26.3889 23.2135 25.3012 24.3012C24.2135 25.3889 22.7383 26 21.2 26H12.8C9.6 26 7 23.4 7 20.2V11.8C7 10.2617 7.61107 8.78649 8.69878 7.69878C9.78649 6.61107 11.2617 6 12.8 6ZM12.6 8C11.6452 8 10.7295 8.37928 10.0544 9.05442C9.37928 9.72955 9 10.6452 9 11.6V20.4C9 22.39 10.61 24 12.6 24H21.4C22.3548 24 23.2705 23.6207 23.9456 22.9456C24.6207 22.2705 25 21.3548 25 20.4V11.6C25 9.61 23.39 8 21.4 8H12.6ZM22.25 9.5C22.5815 9.5 22.8995 9.6317 23.1339 9.86612C23.3683 10.1005 23.5 10.4185 23.5 10.75C23.5 11.0815 23.3683 11.3995 23.1339 11.6339C22.8995 11.8683 22.5815 12 22.25 12C21.9185 12 21.6005 11.8683 21.3661 11.6339C21.1317 11.3995 21 11.0815 21 10.75C21 10.4185 21.1317 10.1005 21.3661 9.86612C21.6005 9.6317 21.9185 9.5 22.25 9.5ZM17 11C18.3261 11 19.5979 11.5268 20.5355 12.4645C21.4732 13.4021 22 14.6739 22 16C22 17.3261 21.4732 18.5979 20.5355 19.5355C19.5979 20.4732 18.3261 21 17 21C15.6739 21 14.4021 20.4732 13.4645 19.5355C12.5268 18.5979 12 17.3261 12 16C12 14.6739 12.5268 13.4021 13.4645 12.4645C14.4021 11.5268 15.6739 11 17 11ZM17 13C16.2044 13 15.4413 13.3161 14.8787 13.8787C14.3161 14.4413 14 15.2044 14 16C14 16.7956 14.3161 17.5587 14.8787 18.1213C15.4413 18.6839 16.2044 19 17 19C17.7956 19 18.5587 18.6839 19.1213 18.1213C19.6839 17.5587 20 16.7956 20 16C20 15.2044 19.6839 14.4413 19.1213 13.8787C18.5587 13.3161 17.7956 13 17 13Z" fill="#003300"/>
<g clip-path="url(#clip0_441_1034)">
<path d="M68.3168 5.50555C69.4901 5.50555 70.6937 5.53577 71.8601 5.5852L73.2379 5.65111L74.5567 5.72939L75.7918 5.81315L76.9198 5.90104C78.144 5.9948 79.2959 6.51754 80.1729 7.3773C81.0499 8.23706 81.5958 9.37876 81.7146 10.6016L81.7695 11.1852L81.8725 12.4348C81.9685 13.7297 82.0399 15.1414 82.0399 16.4913C82.0399 17.8411 81.9685 19.2528 81.8725 20.5477L81.7695 21.7974C81.7517 21.9979 81.7339 22.1915 81.7146 22.381C81.5958 23.604 81.0497 24.7459 80.1724 25.6057C79.2951 26.4654 78.1428 26.988 76.9184 27.0815L75.7931 27.168L74.5581 27.2531L73.2379 27.3314L71.8601 27.3973C70.6797 27.4487 69.4983 27.4752 68.3168 27.477C67.1353 27.4752 65.9539 27.4487 64.7735 27.3973L63.3957 27.3314L62.0769 27.2531L60.8419 27.168L59.7138 27.0815C58.4897 26.9877 57.3377 26.465 56.4607 25.6052C55.5837 24.7455 55.0378 23.6038 54.919 22.381L54.8641 21.7974L54.7612 20.5477C54.6562 19.1981 54.6004 17.845 54.5938 16.4913C54.5938 15.1414 54.6651 13.7297 54.7612 12.4348L54.8641 11.1852C54.8819 10.9847 54.8998 10.7911 54.919 10.6016C55.0377 9.37898 55.5835 8.23745 56.4602 7.37772C57.3369 6.51799 58.4885 5.99511 59.7125 5.90104L60.8391 5.81315L62.0742 5.72939L63.3944 5.65111L64.7721 5.5852C65.953 5.53389 67.1348 5.50733 68.3168 5.50555ZM68.3168 8.25198C67.1847 8.25198 66.0196 8.28219 64.8861 8.32888L63.5439 8.39342L62.2553 8.46895L61.045 8.55134L59.9361 8.63786C59.3534 8.67923 58.804 8.92575 58.3856 9.3337C57.9671 9.74165 57.7064 10.2847 57.6499 10.8666C57.4893 12.5268 57.3384 14.5935 57.3384 16.4913C57.3384 18.3891 57.4893 20.4557 57.6499 22.116C57.7665 23.3134 58.7162 24.2444 59.9361 24.3447L61.045 24.4298L62.2553 24.5122L63.5439 24.5891L64.8861 24.6537C66.0196 24.7003 67.1847 24.7306 68.3168 24.7306C69.449 24.7306 70.6141 24.7003 71.7476 24.6537L73.0897 24.5891L74.3783 24.5136L75.5887 24.4312L76.6975 24.3447C77.2803 24.3033 77.8296 24.0568 78.2481 23.6488C78.6666 23.2409 78.9272 22.6978 78.9838 22.116C79.1443 20.4557 79.2953 18.3891 79.2953 16.4913C79.2953 14.5935 79.1443 12.5268 78.9838 10.8666C78.9272 10.2847 78.6666 9.74165 78.2481 9.3337C77.8296 8.92575 77.2803 8.67923 76.6975 8.63786L75.5887 8.55272L74.3783 8.47032L73.0897 8.39342L71.7476 8.32888C70.6046 8.27968 69.4608 8.25404 68.3168 8.25198ZM65.5722 13.1612C65.5721 13.027 65.6048 12.8948 65.6674 12.7761C65.73 12.6574 65.8206 12.5558 65.9314 12.4802C66.0422 12.4045 66.1698 12.3571 66.303 12.342C66.4363 12.3269 66.5713 12.3446 66.6961 12.3936L66.8073 12.4485L72.571 15.7772C72.6857 15.8435 72.7828 15.9365 72.854 16.0483C72.9252 16.1602 72.9683 16.2876 72.9798 16.4197C72.9912 16.5518 72.9706 16.6847 72.9198 16.8071C72.8689 16.9295 72.7893 17.0379 72.6876 17.1229L72.571 17.2053L66.8073 20.5354C66.6911 20.6027 66.5603 20.6406 66.4262 20.6457C66.2921 20.6508 66.1587 20.6231 66.0378 20.5649C65.9168 20.5067 65.8119 20.4197 65.7322 20.3117C65.6525 20.2036 65.6004 20.0777 65.5804 19.9449L65.5722 19.8213V13.1612Z" fill="#003300"/>
</g>
<path d="M114.153 2.75909V11.5669C112.253 11.214 110.29 11.4557 108.532 12.2592C106.774 13.0627 105.306 14.3889 104.329 16.0572C103.351 17.7254 102.911 19.6547 103.068 21.5822C103.226 23.5097 103.973 25.3418 105.209 26.8289C106.444 28.3161 108.108 29.386 109.973 29.893C111.838 30.4 113.814 30.3194 115.632 29.6623C117.449 29.0051 119.02 27.8033 120.131 26.2205C121.241 24.6377 121.837 22.7508 121.838 20.8169V15.6865C123.313 16.3143 124.9 16.6348 126.504 16.6286H127.876V8.93856H126.504C123.892 8.93856 121.838 6.82793 121.838 4.13231V2.75909H114.153ZM116.897 5.50552H119.214C119.755 8.55406 122.068 10.9929 125.131 11.5614V13.7833C123.707 13.5745 122.421 13.039 121.23 12.2411L119.093 10.8102V20.8169C119.093 22.1487 118.694 23.4499 117.947 24.5525C117.201 25.655 116.141 26.5082 114.905 27.0019C113.668 27.4956 112.313 27.6071 111.013 27.3219C109.712 27.0368 108.528 26.3682 107.611 25.4024C106.695 24.4367 106.089 23.2181 105.871 21.9042C105.654 20.5902 105.835 19.2412 106.392 18.0314C106.948 16.8216 107.854 15.8065 108.993 15.1173C110.132 14.4281 111.451 14.0964 112.78 14.165V16.3676C111.886 16.2986 110.992 16.5009 110.215 16.9481C109.437 17.3953 108.813 18.0666 108.422 18.8745C108.032 19.6823 107.894 20.5892 108.026 21.4767C108.159 22.3642 108.556 23.1911 109.165 23.8495C109.774 24.508 110.568 24.9673 111.442 25.1677C112.316 25.368 113.23 25.3 114.065 24.9726C114.9 24.6451 115.617 24.0734 116.122 23.3321C116.627 22.5907 116.898 21.7142 116.897 20.8169V5.50552ZM110.722 20.8169C110.722 20.3616 110.903 19.925 111.224 19.6031C111.546 19.2812 111.982 19.1003 112.437 19.1003C112.892 19.1003 113.329 19.2812 113.65 19.6031C113.972 19.925 114.153 20.3616 114.153 20.8169C114.153 21.2721 113.972 21.7087 113.65 22.0306C113.329 22.3525 112.892 22.5334 112.437 22.5334C111.982 22.5334 111.546 22.3525 111.224 22.0306C110.903 21.7087 110.722 21.2721 110.722 20.8169Z" fill="#003300"/>
<defs>
<clipPath id="clip0_441_1034">
<rect width="32.9354" height="32.9571" fill="white" transform="translate(51.8496 0.0126953)"/>
</clipPath>
</defs>
</svg>
