<svg width="82" height="30" viewBox="0 0 82 30" fill="none" xmlns="http://www.w3.org/2000/svg">
<rect x="0.5" y="0.5" width="81" height="29" rx="14.5" stroke="#003300"/>
<path d="M62 20L54.2058 12.5L69.7942 12.5L62 20Z" fill="#4E4E4E"/>
<path d="M45.5376 21.4664C45.5376 22.1774 45.262 22.8592 44.7715 23.3619C44.2811 23.8647 43.6158 24.1471 42.9222 24.1471H37.6914V6.72266H42.9222C43.6158 6.72266 44.2811 7.00508 44.7715 7.50781C45.262 8.01054 45.5376 8.69238 45.5376 9.40334V21.4664Z" fill="#ED2939"/>
<path d="M24.6154 6.72266C23.9217 6.72266 23.2565 7.00508 22.766 7.50781C22.2755 8.01054 22 8.69238 22 9.40334V21.4664C22 22.1774 22.2755 22.8592 22.766 23.3619C23.2565 23.8647 23.9217 24.1471 24.6154 24.1471H29.8462V6.72266H24.6154Z" fill="#002495"/>
<path d="M29.8457 6.72266H37.6919V24.1471H29.8457V6.72266Z" fill="#EEEEEE"/>
</svg>
