<svg width="288" height="60" viewBox="0 0 288 60" fill="none" xmlns="http://www.w3.org/2000/svg">
<path d="M287.742 57.8364C287.535 58.5524 286.47 59.1927 285.729 59.2437C283.226 59.4215 280.572 59.5159 277.845 59.5221C276.333 59.5267 274.804 59.4834 273.325 59.4401C272.007 59.4045 270.641 59.3659 269.305 59.3597C265.49 59.3473 261.753 59.3442 257.989 59.4556C256.175 59.5097 254.331 59.6133 252.549 59.7107C250.348 59.8345 248.069 59.9597 245.82 59.9968C245.713 59.9999 245.603 59.9999 245.496 59.9999C244.244 59.9999 242.989 59.887 241.77 59.7788C240.776 59.6891 239.75 59.5963 238.749 59.5685C236.917 59.5174 235.045 59.5143 233.237 59.5097C231.701 59.5066 230.114 59.5019 228.548 59.471C227.57 59.4509 226.585 59.3782 225.634 59.3086C224.756 59.2437 223.848 59.1803 222.958 59.1571C221.849 59.1262 220.709 59.1447 219.611 59.1617C218.923 59.1726 218.206 59.188 217.515 59.1849C216.934 59.1849 216.35 59.1664 215.783 59.1509C215.287 59.1354 214.773 59.12 214.272 59.1169C213.518 59.1138 212.764 59.1138 212.01 59.12C211.069 59.1231 210.095 59.1277 209.134 59.1153C207.419 59.0952 205.679 59.0581 203.996 59.0225C203.346 59.0071 202.695 58.9947 202.045 58.9808C201.142 58.9622 200.242 58.9375 199.339 58.9143C197.434 58.8633 195.465 58.8107 193.533 58.8169C191.342 58.8277 189.113 58.8602 186.958 58.8942C183.062 58.956 179.032 59.0179 175.067 58.9328C172.739 58.8834 170.385 58.1998 168.173 57.5023C167.245 57.2085 166.615 55.7548 166.57 54.8393C166.508 53.5139 166.546 52.17 166.587 50.8709C166.62 49.7868 166.653 48.6625 166.625 47.5661C166.597 46.4541 166.465 45.3144 166.339 44.2133C166.256 43.4926 166.17 42.7487 166.114 42.0095C166.04 41.06 165.995 40.0949 165.952 39.1609C165.919 38.499 165.889 37.8386 165.848 37.1767C165.84 37.053 165.802 36.9091 165.76 36.7591C165.716 36.5968 165.664 36.4174 165.644 36.2241C165.606 35.8823 165.524 35.5343 165.436 35.1662C165.188 34.1193 164.907 32.9316 165.744 31.7222C165.815 31.6139 165.768 31.2026 165.747 31.0046L165.735 30.8917C165.689 30.4494 165.62 29.9963 165.557 29.5586C165.458 28.889 165.353 28.1977 165.315 27.5018L165.249 26.3079C165.105 23.8397 164.96 21.2864 164.968 18.7703C164.973 16.9485 165.1 15.1484 165.234 13.2415C165.296 12.3925 165.355 11.528 165.405 10.6419V10.6388C165.421 10.3465 165.694 10.1269 166.005 10.1547H166.007C168.613 10.3944 168.75 12.1899 168.828 13.1534C168.833 13.2353 168.839 13.3127 168.848 13.3854C169.059 15.586 169.158 17.8254 169.254 19.9889C169.329 21.7024 169.408 23.4732 169.544 25.2083C169.651 26.6064 169.851 28.0292 170.048 29.404C170.24 30.7448 170.437 32.132 170.549 33.5084C170.69 35.225 170.733 36.9757 170.777 38.666C170.802 39.6928 170.83 40.7537 170.88 41.7961C170.908 42.4317 170.974 43.0859 171.037 43.7153C171.141 44.7731 171.252 45.8665 171.206 46.9552C171.123 48.8187 171.235 50.7132 171.346 52.5427C171.383 53.1443 171.416 53.7474 171.445 54.349C171.487 55.2104 171.67 55.2877 172.499 55.2568C173.88 55.2073 175.259 55.1532 176.638 55.0991C180.689 54.9444 184.878 54.782 189.002 54.7542C191.14 54.7387 193.3 54.8594 195.395 54.9754C197.039 55.065 198.739 55.1609 200.404 55.1857C204.866 55.2599 209.4 55.3017 213.787 55.3403C217.814 55.3759 221.978 55.4146 226.076 55.4764C229.047 55.5228 232.07 55.6032 234.992 55.679C238.455 55.7718 242.035 55.8646 245.554 55.9033C248.603 55.9373 251.707 55.8847 254.712 55.8368C256.379 55.8089 258.102 55.7795 259.797 55.7672C260.108 55.7641 260.27 55.7022 260.314 55.6512C260.351 55.6125 260.369 55.4996 260.326 55.3032C260.012 53.95 260.045 52.5798 260.078 51.2576C260.119 49.4977 260.157 47.8321 259.459 46.1881C258.996 45.0963 259.003 43.8668 259.011 42.6776C259.015 42.0915 259.016 41.4837 258.962 40.9192C258.854 39.8228 258.72 38.7077 258.59 37.6298C258.444 36.4004 258.29 35.1276 258.175 33.8718C258.12 33.2857 258.171 32.7027 258.224 32.0887C258.227 32.0841 258.227 32.0779 258.227 32.0702C257.946 32.1985 257.672 32.3253 257.402 32.449C256.301 32.9563 255.261 33.4326 254.216 33.8672C252.541 34.5616 250.71 34.5446 248.921 33.8131C246.654 32.8836 244.74 30.9118 243.927 28.671C243.819 28.3771 243.907 28.1049 243.98 27.8853C244.008 27.8034 244.041 27.6997 244.041 27.6534C244.041 27.4276 244.052 27.1971 244.066 26.9667C244.095 26.3852 244.123 25.8347 243.98 25.3614C243.017 22.1525 244.557 19.0873 247.728 17.9089C248.84 17.4944 249.576 17.2191 249.718 16.9485C249.858 16.6856 249.638 16.0036 249.303 14.969L249.275 14.8808C248.611 12.8302 247.861 10.5027 248.664 8.13035C250.184 3.65942 253.91 1.01182 259.438 0.470541C265.517 -0.121769 270.301 3.06402 272.216 8.99484L272.373 9.4789C272.879 11.0146 273.355 12.4683 273.167 14.1601C273.153 14.2746 273.178 14.3937 273.248 14.4896C273.406 14.7045 273.721 14.9906 273.969 15.0803C278.336 16.6299 280.133 20.2116 281.718 23.3726C282.468 24.8681 280.983 28.3044 279.492 29.254C278.994 29.5679 278.496 29.9082 278.013 30.2345C276.944 30.9598 275.839 31.7114 274.642 32.2929C271.882 33.6352 267.035 33.7156 263.445 32.579C263.142 32.7475 263.031 32.8094 262.729 32.978C262.694 33.1434 262.674 33.2996 262.682 33.4481C262.712 34.0961 262.815 34.7348 262.919 35.4121C262.977 35.7756 263.035 36.1374 263.081 36.5009C263.192 37.3855 263.296 38.2685 263.403 39.1547C263.506 40.0176 263.61 40.879 263.718 41.742L264.009 44.0787C264.439 47.5382 264.885 51.1137 265.396 54.6197C265.409 54.7155 265.451 54.8083 265.52 54.881C265.695 55.0635 266.034 55.2893 266.238 55.3125C268.583 55.5769 270.468 55.696 272.159 55.6806C274.438 55.6651 276.758 55.5924 279.001 55.5228C280.591 55.4733 282.24 55.4223 283.861 55.3914C284.736 55.3759 285.734 55.3883 286.553 55.7517C287.233 56.0548 287.945 57.1389 287.747 57.8364H287.742Z" fill="#003300"/>
<path d="M48.5885 5.64686C47.7733 4.01376 46.3991 2.80285 44.9125 2.40385C42.341 1.71411 39.634 1.27336 36.8675 1.09242C34.3539 0.92849 31.7924 1.08469 29.3152 1.23624L28.4272 1.29037C27.6913 1.33213 26.7719 1.92598 26.4974 2.53221C26.0609 3.49723 25.9914 4.5674 26.0096 5.29426C26.0658 7.63411 26.1733 10.008 26.2791 12.3045C26.3221 13.2927 26.3668 14.281 26.4098 15.2692C26.418 15.5274 26.4362 15.7873 26.4544 16.0455C26.4974 16.7121 26.5404 17.3399 26.4776 17.9601C26.3916 18.8076 26.5917 19.5947 26.7852 20.3572C26.9853 21.1381 27.1721 21.8758 27.0613 22.6583C26.8678 24.0084 26.8761 25.3941 26.886 26.7334C26.891 27.3149 26.8943 27.9134 26.881 28.501C26.8728 28.9093 26.848 29.3299 26.8232 29.7382C26.767 30.6677 26.7091 31.6311 26.8347 32.576C26.9042 33.0848 26.9489 33.6339 26.7703 33.8303C26.633 33.9756 26.2626 34.053 25.6293 34.0638C24.7743 34.0761 23.9062 34.0808 23.0644 34.0854C21.6059 34.0916 20.1011 34.0978 18.6161 34.1597C17.6074 34.2014 16.6499 34.5339 16.0265 34.8061C15.623 34.9809 15.3964 35.3613 15.1964 35.6984C15.117 35.8268 15.0459 35.949 14.9698 36.0495C14.8193 36.2521 14.8838 36.5304 15.1104 36.6542H15.112C15.2542 36.7315 15.3981 36.8305 15.5535 36.9356C15.9289 37.1908 16.3539 37.48 16.8467 37.5078C17.6752 37.5527 18.5119 37.5326 19.3222 37.514C20.0647 37.4955 20.832 37.4784 21.5745 37.5094C21.7928 37.5202 22.2376 37.8372 22.2839 37.9811L22.3881 38.4203C22.7668 40.0039 23.1554 41.6463 23.243 43.2577C23.4497 47.1317 23.4745 50.0994 23.3191 52.88C23.1984 55.0405 22.5832 55.6343 20.1854 55.905C17.5197 56.2066 14.5878 56.2328 11.2226 55.9869C9.90135 55.8895 8.18487 55.4781 7.50521 54.0554C7.01739 53.0331 6.8603 51.8269 6.771 50.7814C6.69493 49.8829 6.68831 48.9597 6.67839 48.0627C6.67177 47.1688 6.66185 46.2425 6.58908 45.33C6.49483 44.1841 6.34599 43.0242 6.20377 41.903C5.99872 40.2869 5.78542 38.6136 5.73416 36.9758C5.62336 33.5055 5.59857 29.9733 5.57376 26.5571C5.55722 24.2265 5.54065 21.8171 5.49766 19.4447C5.4712 18.0266 5.39351 16.5899 5.32075 15.198C5.23806 13.6639 5.15371 12.0757 5.13552 10.5183C5.10906 7.88 5.61675 6.18349 8.29898 5.33447C9.15557 5.06228 10.0734 4.90918 10.9531 4.89062C12.6134 4.85505 14.8028 4.83649 17.0071 5.00352C17.3444 5.02826 17.7049 5.21229 18.0869 5.40715C18.4309 5.58191 18.7881 5.76285 19.1849 5.86182C20.2449 6.12473 20.8965 6.77271 21.1263 7.79185C21.4703 9.33835 21.6952 10.8725 21.7928 12.3509C21.9118 14.1603 21.9614 16.0084 22.0094 17.7962C22.0292 18.5648 22.0524 19.3318 22.0772 20.1004C22.0821 20.2628 22.188 20.4066 22.3451 20.4716L22.9305 20.7113C23.0992 20.7809 23.2976 20.7453 23.4282 20.6232C23.5473 20.5103 23.6945 20.3989 23.8483 20.2814C24.2485 19.9767 24.6635 19.6612 24.7975 19.1973C25.1976 17.824 25.3894 16.6224 25.3828 15.5197C25.3663 13.6423 25.2092 11.8437 24.9099 10.1781C24.5775 8.31612 24.0864 6.44485 23.4547 4.61534C22.8511 2.86625 19.8464 0.75219 17.4817 0.9022C15.1798 1.04912 13.1442 1.012 11.2557 0.790852C9.14728 0.544959 6.93138 0.527947 5.00984 2.06517C2.88159 3.77096 1.73562 5.585 1.51073 7.61091C1.42474 8.37952 1.43136 9.15741 1.44129 9.91056C1.44955 10.7859 1.45945 11.6148 1.33377 12.4329C0.81122 15.8476 0.945154 19.1555 1.15682 22.8161C1.18989 23.4007 1.23951 23.9899 1.28747 24.5621C1.35692 25.3972 1.42637 26.2601 1.45118 27.1061C1.49417 28.5412 1.51402 30.0027 1.53717 31.4177C1.56363 33.1699 1.59173 34.9793 1.65457 36.7624C1.69095 37.7367 1.79019 38.7218 1.88445 39.6729C1.96052 40.4354 2.03989 41.221 2.08288 41.9911C2.10769 42.4102 2.0829 42.8355 2.05644 43.2825C2.01675 43.9382 1.97542 44.6186 2.1044 45.2836C2.24992 46.0491 2.3673 46.8363 2.47974 47.5987C2.76086 49.4824 3.05192 51.4279 3.81922 53.3177C4.78495 55.6978 6.43861 57.2736 8.86782 58.1335C11.0473 58.9083 13.5923 59.6583 16.3638 59.6583C16.8798 59.6583 17.404 59.6336 17.9315 59.5764C18.3482 59.5315 18.7782 59.5485 19.2346 59.5686C19.7819 59.5903 20.3475 59.6135 20.9114 59.5222C21.1363 59.4867 21.3661 59.4588 21.6109 59.431C22.7916 59.2965 24.2633 59.1263 24.938 57.5969C26.3982 54.2858 26.7901 50.5572 26.1716 45.8605C25.9203 43.9598 25.6921 42.0252 25.4705 40.1523C25.3845 39.4332 25.3018 38.7126 25.2142 37.9934C25.2704 37.9826 25.325 37.9718 25.3762 37.9625C25.6739 37.9037 25.907 37.8573 26.1369 37.7877C26.6628 37.63 26.8182 37.6965 26.8546 37.7228C26.9174 37.7676 26.9803 37.9316 26.9737 38.2532C26.9621 38.6028 27.0167 38.943 27.0745 39.2909C27.2763 40.4926 27.2449 41.7483 27.2167 42.9623C27.1737 44.73 27.1291 46.5579 27.774 48.3503C27.9592 48.8653 27.9725 49.4839 27.8005 49.7576C27.1506 50.8015 27.3143 51.8516 27.4615 52.7795C27.5442 53.3069 27.6236 53.8079 27.5657 54.2951C27.4962 54.8719 28.166 55.5091 28.6025 55.7766C29.0093 56.0225 29.4591 56.1571 29.937 56.3009C30.1305 56.3581 30.3322 56.4184 30.5373 56.4896H30.5406C30.8201 56.587 31.1194 56.406 31.1425 56.1277V56.1246C31.1541 56.0024 31.1673 55.8833 31.1805 55.7673C31.2103 55.5091 31.2417 55.2415 31.2252 54.9694C31.1987 54.4606 31.1558 53.944 31.1144 53.4476C31.045 52.6078 30.9722 51.7418 30.9722 50.8974C30.9722 49.1159 31.0053 47.3034 31.0367 45.5496C31.0615 44.2537 31.0863 42.9128 31.0979 41.5921C31.1028 41.0849 31.0532 40.5653 31.0052 40.0626C30.911 39.0899 30.8234 38.1713 31.1094 37.3949C31.5377 36.2258 31.6171 35.2778 30.706 34.1751C30.6861 34.1473 30.6563 34.0653 30.6381 33.821C30.6067 33.3601 30.5654 32.9008 30.5257 32.443C30.4314 31.3342 30.3306 30.1883 30.3389 29.0701C30.3785 24.3904 30.5108 19.7834 30.6233 16.2899C30.6233 16.262 30.6249 16.2342 30.6348 16.2064C30.6646 16.1228 30.7522 16.0022 30.8399 15.9141C30.9077 15.8429 31.0019 15.7965 31.1012 15.7811C31.6039 15.7084 31.9544 15.747 32.1661 15.9017C32.4009 16.0749 32.5333 16.4368 32.5713 17.0059C32.5977 17.4142 32.6109 17.8348 32.6275 18.2415C32.6506 18.8787 32.6721 19.5375 32.7416 20.1901C32.778 20.5164 32.8789 20.8257 32.9781 21.1242C33.0922 21.4706 33.2013 21.8016 33.1765 22.0892C33.0525 23.6342 33.0062 25.4761 33.6114 27.4216C34.172 29.2294 34.5342 31.1347 34.8847 32.9812C35.0418 33.8148 35.2072 34.6746 35.3858 35.5206C35.4222 35.6891 35.5115 35.8175 35.5842 35.9196C35.6107 35.9598 35.6421 36.0015 35.6537 36.0263C35.7794 36.3 35.9199 36.5691 36.0538 36.832C36.3647 37.429 36.6574 37.995 36.8013 38.5873C37.1023 39.826 37.3238 41.1127 37.5372 42.3561C37.6364 42.9345 37.7356 43.5129 37.8431 44.0897L38.0316 45.1073C38.2764 46.4389 38.531 47.8152 38.8072 49.1638C39.1379 50.7706 39.4802 52.4331 39.9234 54.0724C40.0541 54.558 40.4526 55.4426 41.1207 55.6885C41.6829 55.8942 42.2832 55.9003 42.9182 55.9065C43.1728 55.9112 43.4341 55.9127 43.6904 55.9297H43.6921C43.9881 55.9483 44.2212 55.6993 44.1634 55.4271C44.1187 55.2183 44.0708 55.0049 44.0245 54.793C43.9203 54.3276 43.8128 53.8481 43.7268 53.3734C43.54 52.3279 43.3647 51.2593 43.1943 50.2262C42.8372 48.0488 42.4651 45.7924 41.9541 43.601C41.2678 40.6519 40.4394 37.6826 39.6406 34.8107C39.3165 33.6493 38.9924 32.4879 38.6782 31.3249C38.541 30.8223 38.3905 30.3151 38.2433 29.8248C37.982 28.948 37.7125 28.0402 37.524 27.1416C37.2131 25.6647 36.97 24.1414 36.7335 22.6707C36.6641 22.2284 36.5913 21.7877 36.5202 21.3454L36.3945 20.5799C36.1597 19.1571 35.915 17.6833 35.7546 16.245C35.7446 16.1584 35.7628 16.0703 35.8091 15.9945C35.8604 15.9094 35.9348 15.8151 36.0059 15.7455C36.0655 15.6867 36.1432 15.6465 36.2258 15.6264C37.5355 15.3264 38.5377 15.1826 39.4687 15.164C41.7524 15.1176 43.8723 14.4743 45.7674 13.2479C46.6289 12.6896 48.1834 11.5313 48.8945 10.0343C49.4733 8.82182 49.3575 7.18098 48.5935 5.64376L48.5885 5.64686ZM36.2374 7.3743L37.2842 8.53727C37.4727 8.74604 37.82 8.73367 37.9903 8.51252C38.0895 8.38571 38.1821 8.2589 38.2731 8.13672C38.9841 7.18408 39.3198 6.8423 40.0259 7.04953C40.3649 7.14851 40.8114 7.61401 40.9255 7.98517C41.2827 9.13112 40.5551 10.0142 39.8788 10.5524C39.4835 10.8663 38.9792 11.0874 38.4451 11.3179C38.2747 11.3936 38.1011 11.4679 37.9341 11.5452C37.7852 11.6148 37.5802 11.655 37.3735 11.6566H37.3669C36.7236 11.6566 35.8124 11.0163 35.1013 10.0652C34.3456 9.0538 33.9984 7.96351 34.2448 7.3511C34.3688 7.03716 34.7045 6.93818 34.8897 6.9088C34.9575 6.89798 35.0319 6.89179 35.108 6.89179C35.4817 6.89179 35.9265 7.03098 36.2325 7.37121L36.2374 7.3743Z" fill="#003300"/>
<path d="M118.022 55.2369C117.898 55.8802 117.293 57.0695 116.533 57.1453C116.465 57.1515 116.395 57.1561 116.322 57.1561C115.529 57.1561 114.446 56.7587 114.016 56.1447C113.078 54.8008 112.208 53.2481 111.358 51.3954C110.328 49.1545 109.442 46.9121 108.471 44.4222C108.107 43.4881 107.886 42.5974 107.818 41.7777C107.687 40.2297 107.012 38.8827 106.3 37.4583C105.994 36.8459 105.676 36.215 105.408 35.5685C105.114 34.8525 104.79 34.1287 104.479 33.4313C103.978 32.3054 103.457 31.1424 103.027 29.964C102.72 29.1243 102.501 28.252 102.291 27.4076C102.111 26.6916 101.927 25.9524 101.691 25.2487C101.446 24.5203 101.129 23.7904 100.82 23.0852C100.55 22.4712 100.272 21.8372 100.041 21.1954C99.8042 20.5489 99.6123 19.8824 99.4271 19.2359C99.0914 18.0807 98.7772 16.9889 98.2398 15.9868C97.795 15.1532 97.5469 14.2872 97.3088 13.4474C97.279 13.3376 97.2476 13.2309 97.2195 13.1257C97.2195 13.1613 97.2178 13.1969 97.2178 13.2324C97.2063 14.7959 97.193 16.412 97.2939 17.9879C97.3617 19.0055 97.5188 20.0463 97.6726 21.05C97.8032 21.9129 97.9405 22.8053 98.0198 23.6899C98.1174 24.7801 98.1571 25.8859 98.1935 26.9561C98.2233 27.7896 98.2547 28.6526 98.3109 29.4939C98.3985 30.762 98.506 32.0502 98.6102 33.2983C98.7408 34.8525 98.8764 36.4609 98.9724 38.0445C99.0087 38.6739 98.9707 39.3049 98.9327 39.9157C98.8963 40.5034 98.8632 41.0586 98.8897 41.6153C98.9525 42.8541 99.0584 44.1145 99.1592 45.3347C99.2353 46.2316 99.313 47.1564 99.3726 48.0704C99.5214 50.3329 99.6239 52.3929 99.6867 54.3678C99.7 54.8333 99.5826 55.4751 99.2055 55.8895C98.9261 56.1942 98.5242 56.3581 98.1687 56.5035C98.0265 56.5607 97.8942 56.6148 97.7751 56.6736C97.5419 56.7896 97.2526 56.6937 97.1501 56.4664C97.0988 56.3473 97.0326 56.2282 96.9632 56.1014C96.7945 55.7905 96.6192 55.4673 96.5812 55.0962C96.262 51.8918 95.9809 48.9983 95.7841 46.0229C95.7147 44.9542 95.7048 43.8701 95.6982 42.8231C95.6915 41.92 95.6849 40.9859 95.6369 40.075C95.4799 37.0099 95.293 33.7297 95.0052 30.4976C94.8845 29.1366 94.6911 27.7541 94.5042 26.4163C94.3686 25.4529 94.2297 24.4554 94.1173 23.4703C94.0528 22.8981 93.98 22.3259 93.9072 21.7537C93.5765 19.1385 93.2342 16.4321 93.5931 13.6948C93.6939 12.9139 93.6063 12.1128 93.517 11.2653C93.4558 10.7008 93.393 10.1193 93.388 9.53785C93.3748 6.92118 93.4194 4.62772 93.5252 2.52912C93.55 2.06053 93.7981 1.68937 94.1883 1.53782C94.6001 1.37853 95.0929 1.48678 95.5046 1.83474C95.9776 2.23529 96.4241 2.758 96.7978 3.34567C98.7954 6.48352 99.9679 9.97397 101.003 13.053C101.716 15.1764 102.562 17.3059 103.381 19.3659C103.961 20.8288 104.562 22.3413 105.114 23.8461C105.438 24.7276 105.683 25.6385 105.921 26.5231C106.148 27.3736 106.384 28.252 106.688 29.0856C107.155 30.3707 107.68 31.6636 108.191 32.9147C108.696 34.1504 109.217 35.4262 109.681 36.7021C110.348 38.527 110.971 40.3951 111.573 42.1999C111.968 43.383 112.377 44.6047 112.792 45.8017C113.298 47.2601 113.835 48.7354 114.358 50.1613C114.383 50.2262 114.408 50.2912 114.431 50.3546C114.424 49.6262 114.419 48.8963 114.414 48.1663C114.394 45.0671 114.374 41.8597 114.254 38.7156C114.198 37.197 113.988 35.6458 113.787 34.1473C113.675 33.3168 113.561 32.457 113.47 31.6079C113.407 31.0017 113.4 30.3878 113.396 29.797C113.394 29.5975 113.391 29.3949 113.387 29.1969C113.374 28.4438 113.367 27.6907 113.362 26.9375C113.349 25.3493 113.336 23.7053 113.233 22.1001C113.147 20.75 112.982 19.3736 112.822 18.0436C112.714 17.1466 112.602 16.2234 112.516 15.3078C112.489 15.0217 112.574 14.7542 112.648 14.5191C112.704 14.3428 112.759 14.1743 112.749 14.0474C112.711 13.5232 112.638 12.9865 112.572 12.4669C112.484 11.8019 112.395 11.1168 112.37 10.4302C112.339 9.59044 112.359 8.7445 112.382 7.92486C112.4 7.26141 112.418 6.57631 112.407 5.90668C112.398 5.34066 112.345 4.75763 112.296 4.19625C112.253 3.689 112.208 3.16783 112.19 2.64511C112.122 0.592905 113.177 0.234117 113.812 0.201641C114.297 0.178443 114.735 0.322268 115.084 0.616102C115.557 1.01355 115.851 1.69556 115.891 2.48427C115.959 3.76941 116.022 5.0561 116.083 6.34124C116.197 8.70429 116.314 11.1509 116.465 13.5526C116.514 14.3335 116.632 15.13 116.744 15.9032C116.842 16.5698 116.943 17.2611 117 17.9477C117.186 20.0618 117.298 22.1975 117.396 24.0827C117.432 24.7647 117.468 25.4467 117.506 26.1271C117.652 28.8181 117.806 31.6002 117.874 34.3421C117.893 35.1371 117.811 35.9335 117.728 36.7037C117.652 37.4398 117.571 38.2022 117.586 38.9337C117.65 41.9494 117.768 45.0145 117.88 47.9792C117.936 49.4267 117.991 50.8727 118.041 52.3171C118.049 52.5429 118.064 52.7671 118.077 52.9945C118.12 53.7337 118.165 54.4946 118.021 55.2369H118.022Z" fill="#003300"/>
<path d="M87.8352 58.9592C87.6235 59.0195 87.4052 59.0411 87.187 59.0411C86.929 59.0411 86.671 59.0118 86.4329 58.9839C86.3337 58.9731 86.2344 58.9607 86.1385 58.953C83.6663 58.7241 81.4273 58.5602 79.1105 58.8989C76.7937 59.2391 74.935 58.0174 73.2995 56.9394L73.1937 56.8699C72.5653 56.4554 72.2875 55.4796 72.2396 54.7682C72.1337 53.2279 72.0643 51.6628 71.9965 50.1472C71.9105 48.2914 71.8262 46.3722 71.6773 44.4932C71.5533 42.9576 71.3235 41.3987 71.1035 39.8893C70.9729 39.0124 70.8406 38.1031 70.7281 37.2061L70.6785 36.7978C70.4652 35.0921 70.2436 33.3275 70.1278 31.5815C70.0303 30.1479 69.9724 28.6911 69.9145 27.2807C69.86 25.9986 69.8071 24.6764 69.726 23.3773C69.6681 22.4432 69.5689 21.4937 69.4697 20.5751C69.3804 19.7168 69.2878 18.826 69.2266 17.9476C69.177 17.2424 69.2266 16.4691 69.3754 15.583C69.6516 13.9298 69.5011 12.3152 69.3424 10.6063C69.2795 9.91195 69.2117 9.19438 69.1787 8.48299C69.0976 6.78339 69.2613 5.05749 69.4201 3.38882C69.468 2.89703 69.5144 2.40679 69.5557 1.91655C69.6599 0.673169 70.5545 -0.0428598 71.9502 0.00198865C76.3489 0.145813 81.0684 0.300463 85.7896 0.473671C87.0612 0.520066 87.4052 1.39693 87.6814 2.10368C87.7608 2.30318 87.8418 2.51041 87.9393 2.70063C88.0832 2.98209 87.8649 3.30376 87.5342 3.30376H73.073C72.8101 3.30376 72.6034 3.51254 72.6249 3.75689C72.6795 4.37858 72.7357 5.00182 72.7919 5.6297C72.9903 7.82573 73.1921 10.096 73.3277 12.3523C73.3905 13.4086 73.3723 14.4788 73.3574 15.5149C73.3442 16.4181 73.3277 17.3537 73.3657 18.2646C73.4203 19.4972 73.5277 20.7514 73.6319 21.9654C73.713 22.8948 73.7957 23.8567 73.8552 24.8063C73.9279 25.9801 73.9792 27.174 74.0305 28.3292C74.095 29.8108 74.1628 31.3449 74.2719 32.8465C74.3959 34.5492 74.601 36.2782 74.7978 37.9484C74.8457 38.3583 74.8953 38.7665 74.9416 39.1748C75.0491 40.1027 75.1798 41.0476 75.3088 41.9632C75.3319 42.1379 75.3567 42.3142 75.3815 42.489C75.4113 42.6977 75.6014 42.8555 75.8263 42.8555H76.0678C76.9673 42.8539 77.8884 42.8539 78.8079 42.8601C79.1336 42.8617 79.4561 42.8849 79.7686 42.9081C79.8877 42.9158 80.0101 42.9251 80.1291 42.9328C81.3578 43.0086 82.1433 43.6628 82.2309 44.685C82.2623 45.0453 82.1019 45.3933 81.7811 45.6701C81.2586 46.1186 80.3689 46.3336 79.5653 46.2052C78.535 46.0413 77.5048 45.9005 76.5093 45.7629C76.4531 45.7552 76.3969 45.7474 76.3423 45.7397C76.0711 45.7026 75.828 45.899 75.828 46.1557V47.812C75.8296 49.8998 75.8296 51.9736 75.8247 54.0459C75.823 55.5399 75.8511 55.5399 77.3923 55.5414C79.2791 55.5461 81.1941 55.5785 83.0479 55.6126C84.2765 55.6357 85.5051 55.6574 86.7338 55.6698C87.9691 55.6852 88.7315 56.3935 88.8819 57.6663C88.9448 58.1937 88.2949 58.8231 87.8385 58.9545L87.8352 58.9592Z" fill="#003300"/>
<path d="M70.5744 57.6539C70.7117 57.9029 70.5546 58.206 70.2619 58.2586H70.2586C70.0585 58.2941 69.8551 58.3436 69.6401 58.3931C69.1854 58.5029 68.7157 58.6143 68.2296 58.6143C68.1915 58.6143 68.1502 58.6143 68.1122 58.6127C67.5483 58.5911 66.9827 58.5725 66.4188 58.5539C64.1153 58.4782 61.7324 58.4008 59.4106 58.0977C55.8057 57.6291 53.4741 55.079 53.608 51.7555C53.6593 50.5307 53.5203 49.2672 53.388 48.0439C53.307 47.297 53.221 46.5222 53.178 45.7567C53.1698 45.5865 53.1582 45.4118 53.1466 45.237C53.0821 44.2519 53.011 43.2312 53.2888 42.2801C53.6195 41.1342 53.3831 40.0516 53.1334 38.9072C52.9912 38.2608 52.8456 37.5942 52.8076 36.9107C52.7696 36.2148 52.672 35.5003 52.5778 34.8105C52.5282 34.4502 52.4785 34.093 52.4389 33.7326L52.3711 33.1666C52.2537 32.1568 52.1329 31.1113 52.0271 30.0798C51.8402 28.2317 51.6831 26.5445 51.5426 24.916C51.5194 24.6578 51.5294 24.4042 51.536 24.1614C51.5426 23.9588 51.5492 23.7701 51.5409 23.5845C51.4434 21.7983 51.359 20.2982 51.2532 18.7919L51.2449 18.6635C51.1126 16.7799 50.977 14.8344 50.8001 12.926C50.6992 11.8404 50.5802 10.7377 50.4644 9.67066C50.3255 8.37624 50.1816 7.03852 50.0658 5.71935C50.046 5.47037 50.0097 5.21829 49.9716 4.95074C49.7897 3.69808 49.5847 2.27839 51.0779 1.19739C51.6418 0.79066 52.1313 0.580336 52.5712 0.555592C55.723 0.379291 58.9261 0.246292 62.0251 0.117933L63.0355 0.0730841C63.3596 0.0607121 63.8474 0.0390612 64.1318 0.322071C64.5072 0.696323 64.8429 1.1046 65.167 1.5005C65.2877 1.64742 65.4101 1.79434 65.5341 1.93971H65.5358C65.7061 2.14385 65.6432 2.44077 65.4035 2.56759H65.4002C65.258 2.64182 65.1091 2.73925 64.9553 2.84286C64.5766 3.09185 64.15 3.37022 63.6589 3.39187C61.8035 3.4692 59.9167 3.47384 58.0927 3.48002C57.504 3.48157 56.9136 3.48466 56.3249 3.48775C55.6651 3.49239 55.0086 3.4893 54.2463 3.4893H54.0065C53.7403 3.4893 53.5319 3.70272 53.5584 3.95016C53.5782 4.13728 53.5964 4.32132 53.6163 4.5038C53.7304 5.59409 53.8395 6.62096 53.9338 7.6432C53.9718 8.08086 53.9949 8.52316 54.0148 8.94999C54.033 9.31651 54.0512 9.69231 54.0793 10.0588C54.1586 11.0316 54.2413 12.0012 54.324 12.9724C54.4282 14.1988 54.534 15.4236 54.6299 16.65C54.6746 17.2269 54.9111 17.4434 55.5047 17.4495C55.8338 17.4542 56.1612 17.4542 56.492 17.4542C57.2394 17.4526 58.01 17.4526 58.7757 17.5006C59.0204 17.516 59.8605 17.6042 60.3152 18.0821C60.641 18.4223 60.8411 18.8337 61.0345 19.2311C61.1089 19.3842 61.1834 19.5358 61.2644 19.6842V19.6873C61.4033 19.9379 61.2445 20.241 60.9485 20.2936C60.7948 20.3183 60.6426 20.3523 60.4888 20.3863C60.1184 20.4683 59.7265 20.5503 59.328 20.5503C58.7806 20.5441 58.2299 20.5101 57.6975 20.476C57.0559 20.4389 56.3911 20.3987 55.7462 20.408C55.6817 20.4111 55.5626 20.4606 55.4485 20.5224C55.3112 20.5982 55.2319 20.7374 55.2352 20.8859C55.2815 23.0989 55.341 25.5733 55.5675 27.9704C55.6998 29.3823 55.9066 30.8144 56.1083 32.2001C56.2852 33.4295 56.4688 34.6992 56.6011 35.958C56.8359 38.1773 57.0195 40.6285 57.1815 43.6689C57.3105 46.0443 57.3998 48.4599 57.4875 50.7952C57.5255 51.8329 57.5668 52.8721 57.6065 53.9114C57.6429 54.7588 58.0381 55.0604 59.1229 55.0604C59.2618 55.0558 59.3925 55.0604 59.5281 55.0604C62.288 55.0604 65.0744 55.0913 67.8112 55.1547C68.3371 55.1671 69.0895 55.331 69.4648 55.7548C69.8287 56.1646 70.0684 56.6471 70.2966 57.1126C70.3859 57.2935 70.4769 57.476 70.5728 57.6508V57.6539H70.5744Z" fill="#003300"/>
<path d="M171.755 2.83059C171.689 3.70591 169.989 4.34461 169.278 4.42658L169.005 4.45751C165.119 4.89981 161.104 5.35602 157.127 5.53542C156.508 5.56171 155.885 5.59728 155.263 5.63285C152.115 5.81224 148.87 5.99628 145.669 5.17044C145.455 5.11477 145.227 5.18591 145.098 5.35448L145.093 5.36066C145.024 5.45191 144.992 5.56171 144.999 5.67306C145.039 6.28083 145.13 6.90562 145.215 7.50875C145.315 8.18303 145.419 8.88359 145.452 9.58261C145.576 12.1513 145.664 14.7603 145.75 17.2888C145.794 18.6173 145.841 19.9442 145.89 21.2726C145.898 21.4937 145.932 21.7226 145.968 21.9623C145.996 22.1572 146.026 22.3582 146.042 22.567C146.092 23.1717 146.166 23.5135 146.262 23.5862C146.408 23.6944 147.187 23.5862 147.479 23.5444C149.527 23.2583 151.337 23.0944 153.014 23.0449C153.851 23.0186 154.555 23.2537 155.058 23.7192C155.667 24.2805 155.961 25.1327 155.939 26.2523C155.933 26.5431 155.673 26.7719 155.364 26.758L146.61 26.3699C146.282 26.3559 146.014 26.6111 146.036 26.9173C146.062 27.2761 146.087 27.6349 146.115 27.9937C146.239 29.6299 146.363 31.3233 146.431 32.9966C146.51 34.9421 146.558 36.9216 146.601 38.8362C146.634 40.2621 146.671 41.7343 146.717 43.1834C146.758 44.4051 146.821 45.6485 146.886 46.8501C146.935 47.7873 146.982 48.7245 147.021 49.6632C147.034 49.954 147.046 50.2447 147.059 50.5385C147.12 51.8515 147.18 53.2078 147.125 54.5486C147.096 55.2878 146.712 56.1137 146.171 56.607C145.75 56.9874 145.202 57.1699 144.675 57.3478C144.466 57.4174 144.273 57.4839 144.091 57.5581C143.785 57.6865 143.428 57.5287 143.339 57.2256V57.2225C143.289 57.0493 143.231 56.8807 143.173 56.7075C143.036 56.3039 142.895 55.8863 142.841 55.4409L142.742 54.6198C142.55 53.0222 142.348 51.3721 142.302 49.7328C142.274 48.7168 142.335 47.6914 142.396 46.7017C142.446 45.8851 142.495 45.0423 142.492 44.218C142.492 43.7618 142.404 43.2947 142.308 42.7999C142.217 42.3344 142.126 41.8534 142.108 41.3585C141.971 37.5804 141.855 34.1673 141.844 30.6567C141.835 27.8746 141.645 25.7281 141.23 23.7006C140.982 22.4866 141.136 21.2247 141.288 20.0045C141.382 19.2219 141.48 18.4116 141.467 17.6414C141.43 15.8784 141.301 14.0814 141.172 12.3447C141.098 11.3023 141.019 10.2244 140.961 9.16351C140.875 7.55824 140.848 6.12618 140.878 4.78382C140.914 3.20948 141.827 2.19962 143.385 2.01713C143.778 1.97074 144.184 1.91197 144.577 1.85166C145.655 1.69391 146.777 1.52689 147.888 1.59958C152.407 1.88723 156.945 1.33667 161.337 0.806225C162.273 0.69333 163.206 0.580436 164.142 0.473727C165.84 0.280415 167.573 0.319077 169.251 0.35774H169.296C170.033 0.376298 170.692 0.640749 171.145 1.11243C171.593 1.57329 171.811 2.18106 171.762 2.82441L171.755 2.83059Z" fill="#003300"/>
<path d="M240.979 34.5693C240.969 34.8477 240.726 35.0688 240.43 35.0688H234.933C234.632 35.0688 234.389 35.2962 234.384 35.5776C234.376 36.1019 234.365 36.6153 234.351 37.121C234.307 38.915 234.265 40.6115 234.439 42.2786C234.637 44.2055 234.148 45.7629 233.022 46.7851C232.061 47.6527 230.657 48.1074 228.987 48.1074C228.597 48.1074 228.195 48.0842 227.776 48.0331C222.92 47.447 219.283 45.2247 217.261 41.6121C216.05 39.4454 215.483 36.9787 215.571 34.2801C215.62 32.8109 215.409 31.2892 215.202 29.8154C215.09 29.0096 214.971 28.173 214.896 27.3441C214.835 26.659 214.868 25.9723 214.901 25.3058C214.913 25.1001 214.921 24.8944 214.929 24.6887C214.933 24.5712 214.959 24.4614 214.99 24.3624C214.984 24.2217 214.976 24.0206 214.969 23.8799C214.215 21.97 214.491 20.0771 214.761 18.2414C214.822 17.8393 214.88 17.4356 214.929 17.0335C215.207 14.6999 216.039 12.991 217.709 11.313C219.349 9.66602 221.259 9.19744 223.105 8.74122C223.904 8.54636 224.658 8.36233 225.395 8.08705C225.668 7.98343 225.949 7.95096 226.196 7.92003C226.369 7.89992 226.535 7.87827 226.669 7.83961C228.484 7.31535 230.307 7.56743 231.669 8.53708C233.033 9.51292 233.779 11.095 233.72 12.8843C233.665 14.4447 233.529 16.0917 232.544 17.5547L232.382 17.7944L231.545 17.7975C231.276 17.7975 231.046 17.6166 231.001 17.3691C230.943 17.0428 230.874 16.7165 230.806 16.3917C230.649 15.6402 230.487 14.8623 230.445 14.0751C230.388 12.9121 230.032 12.5301 228.929 12.4389C225.478 12.1528 222.926 12.4265 220.659 13.3219C220.208 13.4998 219.635 14.2638 219.606 14.7293C219.478 16.6794 219.528 18.6852 219.576 20.6261C219.588 20.9787 219.596 21.3344 219.604 21.6885C219.621 22.471 219.667 23.269 219.712 24.0407C219.783 25.2547 219.855 26.5089 219.819 27.7523C219.698 32.1165 220.73 36.4251 221.726 40.5898L221.838 41.0584C222.169 42.4425 222.933 43.1817 224.175 43.3209C224.676 43.3751 225.182 43.4555 225.67 43.5313C226.69 43.6936 227.654 43.8452 228.603 43.7988C229.485 43.7524 230.131 43.4926 230.53 43.0194C230.978 42.4843 231.11 41.6677 230.91 40.6594C230.657 39.3928 230.536 37.9731 230.538 36.3153C230.538 35.7214 230.493 35.2838 230.282 35.0874C230.111 34.9296 229.751 34.8539 229.22 34.8616C227.724 34.8771 225.604 34.6327 224.608 32.2851V32.282C224.474 31.9712 224.691 31.6279 225.045 31.583H225.048C225.293 31.5536 225.521 31.5181 225.739 31.4871C226.191 31.4206 226.614 31.3557 227.049 31.351C227.97 31.3433 228.906 31.3479 229.812 31.351C231.092 31.3588 232.418 31.3665 233.716 31.3325C234.695 31.3093 235.673 31.1747 236.542 30.9489C237.996 30.5685 239.077 30.6582 239.841 31.2196C240.665 31.8243 241.035 32.9176 240.978 34.5708L240.979 34.5693Z" fill="#003300"/>
<path d="M212.733 46.0397C212.588 45.7211 212.451 45.4195 212.318 45.1288C212.052 44.5519 211.801 44.0045 211.577 43.4632C211.139 42.3869 210.713 41.2826 210.301 40.2156C209.439 37.984 208.548 35.6781 207.48 33.4806C205.358 29.1132 203.033 24.7537 200.784 20.5348C200.336 19.6935 199.889 18.8538 199.441 18.0125C198.128 15.5412 196.972 13.5446 195.8 11.7306C195.133 10.696 193.82 10.3403 192.886 10.4485C192.087 10.5413 191.489 10.9604 191.287 11.5729C190.64 13.5385 190.144 15.5597 189.746 17.2763C189.577 17.9924 189.463 18.7254 189.352 19.4306C189.237 20.1513 189.121 20.8952 188.95 21.6034C188.529 23.3587 188.067 25.1403 187.621 26.8584C187.289 28.142 186.945 29.4705 186.617 30.7804C186.51 31.2211 186.397 31.6603 186.286 32.1011C185.756 34.2244 185.205 36.4189 184.775 38.6026C184.643 39.2799 184.456 39.9712 184.277 40.6409C183.755 42.5972 183.212 44.62 183.779 46.7758C183.874 47.1392 184.049 47.4532 184.223 47.7563C184.292 47.88 184.36 48.0037 184.421 48.1275C184.586 48.4646 185.068 48.5311 185.331 48.2543C185.422 48.1584 185.534 48.061 185.658 47.9573C185.977 47.6852 186.338 47.3759 186.453 46.9413C186.847 45.435 187.212 43.9024 187.565 42.4162C187.9 41.0105 188.248 39.5568 188.616 38.1355C188.663 37.9623 188.707 37.7876 188.752 37.6113C189.002 36.6153 189.258 35.5915 189.754 34.7874C189.862 34.6126 190.062 34.509 190.277 34.526C190.609 34.5523 191.062 34.6312 191.378 34.6853C191.783 34.7549 192.203 34.8276 192.567 34.8554C192.671 34.8631 192.764 34.8554 192.832 34.8492L192.951 34.8446C193.779 34.8693 194.606 34.8894 195.434 34.9126C197.804 34.9714 200.256 35.0332 202.653 35.1879C203.19 35.2235 203.984 35.6982 204.057 35.9117L204.073 35.9782C204.706 38.4 205.361 40.9038 206.828 43.1384C206.833 43.1663 206.836 43.1957 206.84 43.2266C206.848 43.2962 206.856 43.3689 206.873 43.4354C207.382 45.6623 209.451 46.9336 212.264 46.7557H212.265C212.641 46.731 212.88 46.3691 212.735 46.0443L212.733 46.0397ZM194.345 15.8628C194.677 16.4722 195.021 17.1062 195.307 17.7387C196.016 19.3007 196.724 20.8967 197.409 22.4386C198.092 23.9804 198.798 25.5764 199.509 27.1384C199.75 27.6735 200.032 28.1915 200.308 28.6926C200.531 29.1024 200.759 29.5246 200.959 29.9437C201.201 30.4432 201.27 30.8345 201.146 31.0139C201.035 31.1794 200.675 31.2768 200.156 31.2861C199.405 31.2985 198.651 31.2057 197.852 31.1113C197.23 31.0371 196.589 30.9598 195.942 30.9366C195.226 30.9087 194.503 30.901 193.759 30.901C193.222 30.901 192.673 30.9056 192.111 30.9087C191.915 30.9118 191.717 30.9134 191.517 30.9149C191.17 30.918 190.905 30.6211 190.973 30.301L194.12 15.453C194.194 15.5891 194.269 15.7252 194.343 15.8628H194.345Z" fill="#003300"/>
</svg>
