<svg width="288" height="60" viewBox="0 0 288 60" fill="none" xmlns="http://www.w3.org/2000/svg">
<path d="M287.743 57.8364C287.536 58.5524 286.471 59.1927 285.73 59.2437C283.227 59.4215 280.573 59.5159 277.846 59.5221C276.334 59.5267 274.805 59.4834 273.326 59.4401C272.008 59.4045 270.642 59.3659 269.306 59.3597C265.491 59.3473 261.754 59.3442 257.99 59.4556C256.176 59.5097 254.332 59.6133 252.55 59.7107C250.349 59.8345 248.07 59.9597 245.821 59.9968C245.714 59.9999 245.604 59.9999 245.497 59.9999C244.245 59.9999 242.99 59.887 241.771 59.7788C240.777 59.6891 239.751 59.5963 238.75 59.5685C236.918 59.5174 235.046 59.5143 233.238 59.5097C231.702 59.5066 230.115 59.5019 228.549 59.471C227.571 59.4509 226.586 59.3782 225.635 59.3086C224.757 59.2437 223.849 59.1803 222.959 59.1571C221.85 59.1262 220.71 59.1447 219.612 59.1617C218.924 59.1726 218.207 59.188 217.516 59.1849C216.935 59.1849 216.351 59.1664 215.784 59.1509C215.288 59.1354 214.774 59.12 214.273 59.1169C213.519 59.1138 212.765 59.1138 212.011 59.12C211.07 59.1231 210.096 59.1277 209.135 59.1153C207.42 59.0952 205.68 59.0581 203.997 59.0225C203.347 59.0071 202.695 58.9947 202.046 58.9808C201.143 58.9622 200.243 58.9375 199.34 58.9143C197.435 58.8633 195.466 58.8107 193.534 58.8169C191.343 58.8277 189.114 58.8602 186.959 58.8942C183.063 58.956 179.033 59.0179 175.068 58.9328C172.74 58.8834 170.386 58.1998 168.174 57.5023C167.246 57.2085 166.616 55.7548 166.571 54.8393C166.509 53.5139 166.547 52.17 166.588 50.8709C166.621 49.7868 166.654 48.6625 166.626 47.5661C166.598 46.4541 166.466 45.3144 166.34 44.2133C166.257 43.4926 166.171 42.7487 166.115 42.0095C166.041 41.06 165.996 40.0949 165.953 39.1609C165.92 38.499 165.89 37.8386 165.849 37.1767C165.841 37.053 165.803 36.9091 165.761 36.7591C165.717 36.5968 165.665 36.4174 165.645 36.2241C165.607 35.8823 165.525 35.5343 165.437 35.1662C165.189 34.1193 164.908 32.9316 165.745 31.7222C165.816 31.6139 165.769 31.2026 165.748 31.0046L165.736 30.8917C165.69 30.4494 165.621 29.9963 165.558 29.5586C165.459 28.889 165.354 28.1977 165.316 27.5018L165.25 26.3079C165.106 23.8397 164.961 21.2864 164.969 18.7703C164.974 16.9485 165.101 15.1484 165.235 13.2415C165.297 12.3925 165.356 11.528 165.406 10.6419V10.6388C165.422 10.3465 165.695 10.1269 166.006 10.1547H166.008C168.614 10.3944 168.751 12.1899 168.829 13.1534C168.834 13.2353 168.84 13.3127 168.849 13.3854C169.06 15.586 169.159 17.8254 169.255 19.9889C169.33 21.7024 169.409 23.4732 169.545 25.2083C169.652 26.6064 169.852 28.0292 170.049 29.404C170.241 30.7448 170.438 32.132 170.55 33.5084C170.691 35.225 170.734 36.9757 170.778 38.666C170.803 39.6928 170.831 40.7537 170.881 41.7961C170.909 42.4317 170.975 43.0859 171.038 43.7153C171.142 44.7731 171.253 45.8665 171.207 46.9552C171.124 48.8187 171.236 50.7132 171.347 52.5427C171.384 53.1443 171.417 53.7474 171.446 54.349C171.488 55.2104 171.671 55.2877 172.5 55.2568C173.881 55.2073 175.26 55.1532 176.639 55.0991C180.69 54.9444 184.879 54.782 189.003 54.7542C191.141 54.7387 193.301 54.8594 195.396 54.9754C197.04 55.065 198.74 55.1609 200.405 55.1857C204.867 55.2599 209.401 55.3017 213.788 55.3403C217.815 55.3759 221.979 55.4146 226.076 55.4764C229.048 55.5228 232.071 55.6032 234.993 55.679C238.456 55.7718 242.036 55.8646 245.555 55.9033C248.604 55.9373 251.708 55.8847 254.713 55.8368C256.38 55.8089 258.103 55.7795 259.798 55.7672C260.109 55.7641 260.271 55.7022 260.315 55.6512C260.352 55.6125 260.37 55.4996 260.327 55.3032C260.013 53.95 260.046 52.5798 260.079 51.2576C260.12 49.4977 260.158 47.8321 259.46 46.1881C258.997 45.0963 259.004 43.8668 259.012 42.6776C259.016 42.0915 259.017 41.4837 258.963 40.9192C258.855 39.8228 258.721 38.7077 258.591 37.6298C258.445 36.4004 258.291 35.1276 258.176 33.8718C258.121 33.2857 258.172 32.7027 258.225 32.0887C258.228 32.0841 258.228 32.0779 258.228 32.0702C257.947 32.1985 257.673 32.3253 257.403 32.449C256.302 32.9563 255.262 33.4326 254.217 33.8672C252.542 34.5616 250.711 34.5446 248.922 33.8131C246.655 32.8836 244.741 30.9118 243.928 28.671C243.82 28.3771 243.908 28.1049 243.981 27.8853C244.009 27.8034 244.042 27.6997 244.042 27.6534C244.042 27.4276 244.053 27.1971 244.067 26.9667C244.096 26.3852 244.124 25.8347 243.981 25.3614C243.018 22.1525 244.558 19.0873 247.729 17.9089C248.841 17.4944 249.577 17.2191 249.719 16.9485C249.859 16.6856 249.639 16.0036 249.304 14.969L249.276 14.8808C248.612 12.8302 247.862 10.5027 248.665 8.13035C250.185 3.65942 253.911 1.01182 259.439 0.470541C265.518 -0.121769 270.302 3.06402 272.217 8.99484L272.374 9.4789C272.88 11.0146 273.356 12.4683 273.168 14.1601C273.154 14.2746 273.179 14.3937 273.249 14.4896C273.407 14.7045 273.721 14.9906 273.97 15.0803C278.337 16.6299 280.134 20.2116 281.719 23.3726C282.469 24.8681 280.984 28.3044 279.493 29.254C278.995 29.5679 278.497 29.9082 278.014 30.2345C276.945 30.9598 275.84 31.7114 274.643 32.2929C271.883 33.6352 267.036 33.7156 263.446 32.579C263.143 32.7475 263.032 32.8094 262.73 32.978C262.695 33.1434 262.675 33.2996 262.683 33.4481C262.713 34.0961 262.816 34.7348 262.92 35.4121C262.978 35.7756 263.036 36.1374 263.082 36.5009C263.193 37.3855 263.297 38.2685 263.404 39.1547C263.507 40.0176 263.611 40.879 263.719 41.742L264.01 44.0787C264.44 47.5382 264.886 51.1137 265.397 54.6197C265.41 54.7155 265.452 54.8083 265.521 54.881C265.696 55.0635 266.035 55.2893 266.239 55.3125C268.584 55.5769 270.469 55.696 272.16 55.6806C274.439 55.6651 276.759 55.5924 279.002 55.5228C280.592 55.4733 282.241 55.4223 283.862 55.3914C284.736 55.3759 285.735 55.3883 286.554 55.7517C287.234 56.0548 287.946 57.1389 287.748 57.8364H287.743Z" fill="#003300"/>
<path d="M48.5895 5.64674C47.7743 4.01363 46.4001 2.80273 44.9134 2.40373C42.342 1.71399 39.635 1.27324 36.8684 1.0923C34.3549 0.928368 31.7934 1.08456 29.3162 1.23612L28.4282 1.29025C27.6923 1.332 26.7729 1.92586 26.4984 2.53209C26.0618 3.4971 25.9924 4.56728 26.0105 5.29413C26.0668 7.63399 26.1743 10.0079 26.2801 12.3044C26.3231 13.2926 26.3678 14.2808 26.4108 15.2691C26.419 15.5273 26.4372 15.7871 26.4554 16.0454C26.4984 16.7119 26.5414 17.3398 26.4785 17.96C26.3925 18.8074 26.5927 19.5946 26.7861 20.357C26.9862 21.138 27.1731 21.8757 27.0623 22.6582C26.8688 24.0083 26.8771 25.394 26.887 26.7332C26.8919 27.3147 26.8952 27.9132 26.882 28.5009C26.8738 28.9092 26.849 29.3298 26.8242 29.7381C26.7679 30.6675 26.71 31.631 26.8357 32.5759C26.9052 33.0847 26.9498 33.6337 26.7712 33.8301C26.634 33.9755 26.2636 34.0528 25.6302 34.0637C24.7753 34.076 23.9071 34.0807 23.0654 34.0853C21.6069 34.0915 20.102 34.0977 18.6171 34.1595C17.6083 34.2013 16.6509 34.5338 16.0275 34.806C15.624 34.9807 15.3974 35.3612 15.1973 35.6983C15.118 35.8267 15.0468 35.9488 14.9708 36.0494C14.8203 36.252 14.8848 36.5303 15.1113 36.654H15.113C15.2552 36.7314 15.3991 36.8303 15.5545 36.9355C15.9299 37.1907 16.3549 37.4799 16.8477 37.5077C17.6761 37.5526 18.5129 37.5325 19.3232 37.5139C20.0657 37.4953 20.833 37.4783 21.5755 37.5093C21.7938 37.5201 22.2386 37.8371 22.2849 37.9809L22.3891 38.4201C22.7677 40.0038 23.1563 41.6461 23.244 43.2576C23.4507 47.1316 23.4755 50.0993 23.32 52.8799C23.1993 55.0404 22.5842 55.6342 20.1864 55.9049C17.5207 56.2064 14.5888 56.2327 11.2236 55.9868C9.90233 55.8894 8.18584 55.478 7.50619 54.0552C7.01836 53.033 6.86128 51.8267 6.77198 50.7813C6.69591 49.8828 6.68929 48.9595 6.67936 48.0626C6.67275 47.1687 6.66282 46.2423 6.59006 45.3299C6.4958 44.1839 6.34696 43.0241 6.20475 41.9029C5.99969 40.2868 5.7864 38.6135 5.73514 36.9757C5.62434 33.5054 5.59954 29.9732 5.57474 26.5569C5.5582 24.2264 5.54163 21.8169 5.49863 19.4446C5.47218 18.0265 5.39448 16.5898 5.32172 15.1979C5.23904 13.6638 5.15469 12.0755 5.1365 10.5182C5.11004 7.87988 5.61773 6.18337 8.29995 5.33434C9.15654 5.06216 10.0743 4.90906 10.9541 4.8905C12.6143 4.85493 14.8038 4.83637 17.0081 5.00339C17.3454 5.02814 17.7059 5.21217 18.0879 5.40703C18.4319 5.58178 18.789 5.76272 19.1859 5.8617C20.2459 6.1246 20.8974 6.77259 21.1273 7.79173C21.4713 9.33823 21.6962 10.8724 21.7937 12.3508C21.9128 14.1602 21.9624 16.0083 22.0104 17.796C22.0302 18.5646 22.0533 19.3317 22.0782 20.1003C22.0831 20.2627 22.189 20.4065 22.3461 20.4715L22.9315 20.7112C23.1001 20.7808 23.2986 20.7452 23.4292 20.623C23.5483 20.5101 23.6955 20.3988 23.8492 20.2813C24.2494 19.9766 24.6645 19.6611 24.7984 19.1972C25.1986 17.8239 25.3904 16.6222 25.3838 15.5196C25.3673 13.6421 25.2102 11.8436 24.9109 10.178C24.5785 8.31599 24.0874 6.44473 23.4557 4.61522C22.8521 2.86613 19.8474 0.752068 17.4827 0.902078C15.1808 1.049 13.1451 1.01188 11.2567 0.79073C9.14826 0.544837 6.93236 0.527825 5.01082 2.06505C2.88257 3.77083 1.7366 5.58488 1.5117 7.61079C1.42571 8.3794 1.43234 9.15729 1.44226 9.91043C1.45053 10.7858 1.46043 11.6147 1.33475 12.4328C0.812196 15.8474 0.946131 19.1554 1.1578 22.816C1.19087 23.4005 1.24049 23.9898 1.28844 24.562C1.3579 25.3971 1.42735 26.26 1.45215 27.106C1.49515 28.5411 1.515 30.0025 1.53815 31.4176C1.5646 33.1698 1.59271 34.9792 1.65555 36.7623C1.69193 37.7366 1.79117 38.7217 1.88543 39.6728C1.9615 40.4352 2.04086 41.2209 2.08386 41.991C2.10866 42.4101 2.08387 42.8354 2.05742 43.2823C2.01773 43.9381 1.97639 44.6185 2.10538 45.2835C2.2509 46.049 2.36827 46.8362 2.48072 47.5986C2.76184 49.4823 3.0529 51.4277 3.82019 53.3176C4.78593 55.6976 6.43958 57.2735 8.8688 58.1334C11.0483 58.9082 13.5933 59.6582 16.3648 59.6582C16.8808 59.6582 17.405 59.6335 17.9325 59.5763C18.3492 59.5314 18.7791 59.5484 19.2355 59.5685C19.7829 59.5902 20.3485 59.6134 20.9124 59.5221C21.1373 59.4866 21.3671 59.4587 21.6119 59.4309C22.7926 59.2963 24.2643 59.1262 24.939 57.5967C26.3992 54.2857 26.7911 50.5571 26.1726 45.8604C25.9212 43.9597 25.693 42.025 25.4714 40.1522C25.3855 39.4331 25.3028 38.7124 25.2152 37.9933C25.2714 37.9825 25.326 37.9717 25.3772 37.9624C25.6749 37.9036 25.908 37.8572 26.1379 37.7876C26.6637 37.6299 26.8192 37.6964 26.8556 37.7227C26.9184 37.7675 26.9812 37.9314 26.9746 38.2531C26.9631 38.6026 27.0176 38.9429 27.0755 39.2908C27.2773 40.4925 27.2458 41.7482 27.2177 42.9622C27.1747 44.7299 27.1301 46.5578 27.775 48.3502C27.9602 48.8652 27.9734 49.4838 27.8015 49.7575C27.1516 50.8014 27.3153 51.8515 27.4625 52.7794C27.5451 53.3067 27.6245 53.8078 27.5667 54.295C27.4972 54.8718 28.1669 55.509 28.6035 55.7765C29.0103 56.0224 29.4601 56.1569 29.938 56.3008C30.1314 56.358 30.3332 56.4183 30.5383 56.4894H30.5416C30.821 56.5869 31.1203 56.4059 31.1435 56.1276V56.1245C31.1551 56.0023 31.1683 55.8832 31.1815 55.7672C31.2113 55.509 31.2427 55.2414 31.2262 54.9692C31.1997 54.4604 31.1567 53.9439 31.1154 53.4475C31.0459 52.6077 30.9732 51.7417 30.9732 50.8973C30.9732 49.1157 31.0062 47.3032 31.0377 45.5495C31.0625 44.2535 31.0873 42.9127 31.0988 41.592C31.1038 41.0848 31.0542 40.5651 31.0062 40.0625C30.912 39.0898 30.8243 38.1712 31.1104 37.3948C31.5387 36.2257 31.6181 35.2777 30.7069 34.175C30.6871 34.1472 30.6573 34.0652 30.6391 33.8209C30.6077 33.36 30.5664 32.9007 30.5267 32.4429C30.4324 31.3341 30.3316 30.1881 30.3398 29.07C30.3795 24.3903 30.5118 19.7833 30.6243 16.2897C30.6243 16.2619 30.6259 16.2341 30.6358 16.2062C30.6656 16.1227 30.7532 16.0021 30.8409 15.9139C30.9087 15.8428 31.0029 15.7964 31.1021 15.7809C31.6049 15.7083 31.9554 15.7469 32.1671 15.9016C32.4019 16.0748 32.5342 16.4367 32.5723 17.0058C32.5987 17.414 32.6119 17.8347 32.6285 18.2414C32.6516 18.8786 32.6731 19.5374 32.7426 20.19C32.7789 20.5163 32.8798 20.8256 32.9791 21.1241C33.0932 21.4705 33.2023 21.8015 33.1775 22.0891C33.0535 23.6341 33.0071 25.4759 33.6124 27.4214C34.173 29.2293 34.5351 31.1346 34.8857 32.9811C35.0428 33.8147 35.2082 34.6745 35.3868 35.5205C35.4232 35.689 35.5125 35.8174 35.5852 35.9195C35.6117 35.9597 35.6431 36.0014 35.6547 36.0262C35.7803 36.2999 35.9209 36.569 36.0548 36.8319C36.3657 37.4288 36.6584 37.9949 36.8023 38.5872C37.1032 39.8259 37.3248 41.1126 37.5381 42.356C37.6374 42.9344 37.7366 43.5128 37.8441 44.0896L38.0326 45.1072C38.2774 46.4387 38.532 47.8151 38.8082 49.1637C39.1389 50.7705 39.4812 52.433 39.9244 54.0723C40.055 54.5579 40.4536 55.4425 41.1216 55.6884C41.6839 55.894 42.2841 55.9002 42.9191 55.9064C43.1738 55.911 43.4351 55.9126 43.6914 55.9296H43.6931C43.9891 55.9482 44.2222 55.6992 44.1643 55.427C44.1197 55.2182 44.0718 55.0048 44.0255 54.7929C43.9213 54.3274 43.8138 53.848 43.7278 53.3732C43.5409 52.3278 43.3656 51.2592 43.1953 50.2261C42.8381 48.0486 42.4661 45.7923 41.9551 43.6009C41.2688 40.6517 40.4403 37.6825 39.6416 34.8106C39.3175 33.6492 38.9934 32.4878 38.6792 31.3248C38.5419 30.8222 38.3914 30.3149 38.2443 29.8247C37.983 28.9478 37.7135 28.04 37.5249 27.1415C37.2141 25.6646 36.971 24.1413 36.7345 22.6706C36.665 22.2283 36.5923 21.7875 36.5212 21.3452L36.3955 20.5797C36.1607 19.157 35.9159 17.6831 35.7555 16.2449C35.7456 16.1583 35.7638 16.0701 35.8101 15.9944C35.8613 15.9093 35.9358 15.815 36.0069 15.7454C36.0664 15.6866 36.1441 15.6464 36.2268 15.6263C37.5365 15.3263 38.5386 15.1824 39.4696 15.1639C41.7533 15.1175 43.8733 14.4742 45.7684 13.2478C46.6299 12.6895 48.1844 11.5312 48.8955 10.0342C49.4742 8.8217 49.3585 7.18086 48.5945 5.64364L48.5895 5.64674ZM36.2384 7.37418L37.2852 8.53714C37.4737 8.74592 37.821 8.73355 37.9913 8.5124C38.0905 8.38559 38.1831 8.25877 38.2741 8.1366C38.9851 7.18396 39.3208 6.84218 40.0269 7.04941C40.3659 7.14839 40.8124 7.61388 40.9265 7.98504C41.2837 9.131 40.5561 10.0141 39.8797 10.5522C39.4845 10.8662 38.9802 11.0873 38.446 11.3177C38.2757 11.3935 38.1021 11.4678 37.935 11.5451C37.7862 11.6147 37.5811 11.6549 37.3744 11.6564H37.3679C36.7246 11.6564 35.8134 11.0162 35.1023 10.0651C34.3466 9.05367 33.9993 7.96339 34.2457 7.35098C34.3698 7.03704 34.7055 6.93806 34.8907 6.90868C34.9585 6.89785 35.0329 6.89167 35.1089 6.89167C35.4827 6.89167 35.9275 7.03085 36.2334 7.37108L36.2384 7.37418Z" fill="#003300"/>
<path d="M118.023 55.2368C117.899 55.8801 117.294 57.0694 116.533 57.1452C116.466 57.1513 116.396 57.156 116.323 57.156C115.53 57.156 114.447 56.7585 114.017 56.1446C113.079 54.8007 112.209 53.248 111.359 51.3953C110.329 49.1544 109.443 46.912 108.472 44.4221C108.108 43.488 107.887 42.5972 107.819 41.7776C107.688 40.2295 107.013 38.8825 106.301 37.4582C105.995 36.8458 105.677 36.2148 105.409 35.5684C105.115 34.8524 104.791 34.1286 104.48 33.4311C103.979 32.3053 103.458 31.1423 103.028 29.9639C102.721 29.1241 102.502 28.2519 102.292 27.4075C102.112 26.6915 101.928 25.9523 101.692 25.2486C101.447 24.5202 101.13 23.7903 100.82 23.0851C100.551 22.4711 100.273 21.837 100.042 21.1952C99.8051 20.5488 99.6133 19.8823 99.4281 19.2358C99.0924 18.0806 98.7782 16.9888 98.2408 15.9866C97.7959 15.1531 97.5479 14.287 97.3098 13.4473C97.28 13.3375 97.2486 13.2308 97.2205 13.1256C97.2205 13.1612 97.2188 13.1967 97.2188 13.2323C97.2073 14.7958 97.194 16.4119 97.2949 17.9878C97.3627 19.0054 97.5198 20.0462 97.6736 21.0499C97.8042 21.9128 97.9414 22.8051 98.0208 23.6897C98.1184 24.78 98.1581 25.8858 98.1945 26.9559C98.2242 27.7895 98.2556 28.6525 98.3119 29.4938C98.3995 30.7619 98.507 32.0501 98.6112 33.2981C98.7418 34.8524 98.8774 36.4607 98.9733 38.0443C99.0097 38.6738 98.9717 39.3047 98.9336 39.9156C98.8973 40.5033 98.8642 41.0585 98.8906 41.6152C98.9535 42.854 99.0593 44.1144 99.1602 45.3345C99.2363 46.2315 99.314 47.1563 99.3735 48.0703C99.5224 50.3328 99.6249 52.3928 99.6877 54.3676C99.7009 54.8331 99.5836 55.4749 99.2065 55.8894C98.9271 56.1941 98.5252 56.358 98.1697 56.5034C98.0275 56.5606 97.8951 56.6147 97.7761 56.6735C97.5429 56.7895 97.2536 56.6936 97.151 56.4662C97.0998 56.3472 97.0336 56.2281 96.9642 56.1013C96.7955 55.7904 96.6202 55.4672 96.5822 55.096C96.263 51.8917 95.9819 48.9982 95.7851 46.0227C95.7157 44.9541 95.7057 43.87 95.6991 42.823C95.6925 41.9199 95.6859 40.9858 95.6379 40.0749C95.4808 37.0097 95.294 33.7296 95.0062 30.4974C94.8855 29.1365 94.6921 27.7539 94.5052 26.4162C94.3696 25.4528 94.2307 24.4553 94.1182 23.4701C94.0537 22.8979 93.981 22.3257 93.9082 21.7535C93.5775 19.1384 93.2352 16.432 93.594 13.6947C93.6949 12.9137 93.6072 12.1127 93.5179 11.2652C93.4567 10.7007 93.3939 10.1192 93.389 9.53773C93.3758 6.92106 93.4204 4.6276 93.5262 2.529C93.551 2.06041 93.7991 1.68925 94.1893 1.53769C94.6011 1.3784 95.0939 1.48666 95.5056 1.83462C95.9786 2.23516 96.4251 2.75788 96.7988 3.34555C98.7964 6.4834 99.9688 9.97384 101.004 13.0529C101.717 15.1763 102.563 17.3058 103.382 19.3657C103.962 20.8287 104.563 22.3412 105.115 23.8459C105.439 24.7274 105.684 25.6383 105.922 26.5229C106.149 27.3735 106.385 28.2519 106.689 29.0855C107.156 30.3706 107.681 31.6635 108.192 32.9146C108.697 34.1503 109.218 35.4261 109.682 36.702C110.349 38.5269 110.972 40.395 111.574 42.1998C111.969 43.3829 112.378 44.6046 112.793 45.8016C113.299 47.2599 113.836 48.7353 114.359 50.1612C114.384 50.2261 114.409 50.2911 114.432 50.3545C114.425 49.6261 114.42 48.8961 114.415 48.1662C114.395 45.067 114.375 41.8596 114.255 38.7155C114.199 37.1969 113.989 35.6457 113.788 34.1472C113.676 33.3167 113.562 32.4568 113.471 31.6078C113.408 31.0016 113.401 30.3876 113.397 29.7969C113.395 29.5974 113.392 29.3948 113.388 29.1968C113.375 28.4437 113.368 27.6905 113.363 26.9374C113.35 25.3491 113.337 23.7052 113.234 22.0999C113.148 20.7498 112.983 19.3735 112.823 18.0435C112.715 17.1465 112.603 16.2232 112.517 15.3077C112.49 15.0216 112.575 14.7541 112.649 14.519C112.705 14.3427 112.76 14.1741 112.75 14.0473C112.712 13.5231 112.639 12.9864 112.573 12.4668C112.485 11.8018 112.396 11.1167 112.371 10.4301C112.34 9.59031 112.36 8.74438 112.383 7.92473C112.401 7.26129 112.419 6.57619 112.408 5.90655C112.399 5.34053 112.346 4.7575 112.297 4.19613C112.254 3.68887 112.209 3.1677 112.191 2.64499C112.123 0.592783 113.178 0.233995 113.813 0.201519C114.298 0.178321 114.736 0.322145 115.085 0.61598C115.558 1.01343 115.852 1.69544 115.892 2.48415C115.96 3.76929 116.023 5.05598 116.084 6.34112C116.198 8.70417 116.315 11.1507 116.466 13.5524C116.515 14.3334 116.633 15.1299 116.745 15.9031C116.843 16.5697 116.944 17.2609 117.001 17.9476C117.187 20.0617 117.299 22.1974 117.397 24.0826C117.433 24.7646 117.469 25.4466 117.507 26.127C117.653 28.8179 117.807 31.6001 117.875 34.342C117.894 35.1369 117.812 35.9334 117.729 36.7035C117.653 37.4397 117.572 38.2021 117.587 38.9336C117.651 41.9493 117.769 45.0144 117.881 47.9791C117.937 49.4266 117.992 50.8726 118.042 52.317C118.05 52.5428 118.065 52.767 118.078 52.9944C118.121 53.7336 118.166 54.4945 118.022 55.2368H118.023Z" fill="#003300"/>
<path d="M87.8361 58.9592C87.6245 59.0195 87.4062 59.0411 87.1879 59.0411C86.93 59.0411 86.672 59.0118 86.4339 58.9839C86.3346 58.9731 86.2354 58.9607 86.1395 58.953C83.6673 58.7241 81.4282 58.5602 79.1115 58.8989C76.7947 59.2391 74.936 58.0174 73.3005 56.9394L73.1947 56.8699C72.5663 56.4554 72.2885 55.4796 72.2405 54.7682C72.1347 53.2279 72.0653 51.6628 71.9975 50.1472C71.9115 48.2914 71.8271 46.3722 71.6783 44.4932C71.5543 42.9576 71.3244 41.3987 71.1045 39.8893C70.9739 39.0124 70.8416 38.1031 70.7291 37.2061L70.6795 36.7978C70.4662 35.0921 70.2446 33.3275 70.1288 31.5815C70.0313 30.1479 69.9734 28.6911 69.9155 27.2807C69.8609 25.9986 69.808 24.6764 69.727 23.3773C69.6691 22.4432 69.5699 21.4937 69.4707 20.5751C69.3814 19.7168 69.2888 18.826 69.2276 17.9476C69.178 17.2424 69.2276 16.4691 69.3764 15.583C69.6526 13.9298 69.5021 12.3152 69.3433 10.6063C69.2805 9.91195 69.2127 9.19438 69.1796 8.48299C69.0986 6.78339 69.2623 5.05749 69.4211 3.38882C69.469 2.89703 69.5153 2.40679 69.5567 1.91655C69.6608 0.673169 70.5555 -0.0428598 71.9512 0.00198865C76.3499 0.145813 81.0694 0.300463 85.7906 0.473671C87.0622 0.520066 87.4062 1.39693 87.6824 2.10368C87.7617 2.30318 87.8427 2.51041 87.9403 2.70063C88.0842 2.98209 87.8659 3.30376 87.5352 3.30376H73.074C72.8111 3.30376 72.6044 3.51254 72.6259 3.75689C72.6804 4.37858 72.7367 5.00182 72.7929 5.6297C72.9913 7.82573 73.1931 10.096 73.3287 12.3523C73.3915 13.4086 73.3733 14.4788 73.3584 15.5149C73.3452 16.4181 73.3287 17.3537 73.3667 18.2646C73.4213 19.4972 73.5287 20.7514 73.6329 21.9654C73.7139 22.8948 73.7966 23.8567 73.8562 24.8063C73.9289 25.9801 73.9802 27.174 74.0315 28.3292C74.096 29.8108 74.1637 31.3449 74.2729 32.8465C74.3969 34.5492 74.602 36.2782 74.7987 37.9484C74.8467 38.3583 74.8963 38.7665 74.9426 39.1748C75.0501 40.1027 75.1807 41.0476 75.3097 41.9632C75.3329 42.1379 75.3577 42.3142 75.3825 42.489C75.4122 42.6977 75.6024 42.8555 75.8273 42.8555H76.0687C76.9683 42.8539 77.8894 42.8539 78.8088 42.8601C79.1346 42.8617 79.4571 42.8849 79.7696 42.9081C79.8887 42.9158 80.011 42.9251 80.1301 42.9328C81.3588 43.0086 82.1443 43.6628 82.2319 44.685C82.2633 45.0453 82.1029 45.3933 81.7821 45.6701C81.2596 46.1186 80.3699 46.3336 79.5662 46.2052C78.536 46.0413 77.5058 45.9005 76.5103 45.7629C76.4541 45.7552 76.3978 45.7474 76.3433 45.7397C76.0721 45.7026 75.829 45.899 75.829 46.1557V47.812C75.8306 49.8998 75.8306 51.9736 75.8256 54.0459C75.824 55.5399 75.8521 55.5399 77.3933 55.5414C79.2801 55.5461 81.1951 55.5785 83.0488 55.6126C84.2775 55.6357 85.5061 55.6574 86.7348 55.6698C87.9701 55.6852 88.7324 56.3935 88.8829 57.6663C88.9458 58.1937 88.2959 58.8231 87.8395 58.9545L87.8361 58.9592Z" fill="#003300"/>
<path d="M70.5744 57.654C70.7117 57.903 70.5546 58.2061 70.2619 58.2587H70.2586C70.0585 58.2943 69.8551 58.3437 69.6401 58.3932C69.1854 58.503 68.7157 58.6144 68.2296 58.6144C68.1915 58.6144 68.1502 58.6144 68.1122 58.6128C67.5483 58.5912 66.9827 58.5726 66.4188 58.5541C64.1153 58.4783 61.7324 58.401 59.4106 58.0978C55.8057 57.6293 53.4741 55.0791 53.608 51.7557C53.6593 50.5308 53.5203 49.2673 53.388 48.0441C53.307 47.2971 53.221 46.5223 53.178 45.7568C53.1698 45.5867 53.1582 45.4119 53.1466 45.2372C53.0821 44.252 53.011 43.2314 53.2888 42.2803C53.6195 41.1343 53.3831 40.0518 53.1334 38.9073C52.9912 38.2609 52.8456 37.5944 52.8076 36.9108C52.7696 36.2149 52.672 35.5004 52.5778 34.8107C52.5282 34.4503 52.4785 34.0931 52.4389 33.7328L52.3711 33.1667C52.2537 32.1569 52.1329 31.1114 52.0271 30.0799C51.8402 28.2319 51.6831 26.5446 51.5426 24.9162C51.5194 24.6579 51.5294 24.4043 51.536 24.1615C51.5426 23.9589 51.5492 23.7702 51.5409 23.5846C51.4434 21.7984 51.359 20.2983 51.2532 18.792L51.2449 18.6637C51.1126 16.78 50.977 14.8345 50.8001 12.9262C50.6992 11.8405 50.5802 10.7379 50.4644 9.67078C50.3255 8.37636 50.1816 7.03864 50.0658 5.71947C50.046 5.47049 50.0097 5.21841 49.9716 4.95086C49.7897 3.6982 49.5847 2.27851 51.0779 1.19751C51.6418 0.790782 52.1313 0.580458 52.5712 0.555714C55.723 0.379413 58.9261 0.246414 62.0251 0.118055L63.0355 0.0732062C63.3596 0.0608342 63.8474 0.0391833 64.1318 0.322193C64.5072 0.696445 64.8429 1.10472 65.167 1.50062C65.2877 1.64754 65.4101 1.79446 65.5341 1.93983H65.5358C65.7061 2.14397 65.6432 2.4409 65.4035 2.56771H65.4002C65.258 2.64194 65.1091 2.73937 64.9553 2.84299C64.5766 3.09197 64.15 3.37034 63.6589 3.39199C61.8035 3.46932 59.9167 3.47396 58.0927 3.48014C57.504 3.48169 56.9136 3.48478 56.3249 3.48788C55.6651 3.49252 55.0086 3.48942 54.2463 3.48942H54.0065C53.7403 3.48942 53.5319 3.70284 53.5584 3.95028C53.5782 4.13741 53.5964 4.32144 53.6163 4.50393C53.7304 5.59421 53.8395 6.62108 53.9338 7.64332C53.9718 8.08098 53.9949 8.52328 54.0148 8.95011C54.033 9.31663 54.0512 9.69243 54.0793 10.059C54.1586 11.0317 54.2413 12.0014 54.324 12.9726C54.4282 14.1989 54.534 15.4238 54.6299 16.6501C54.6746 17.227 54.9111 17.4435 55.5047 17.4497C55.8338 17.4543 56.1612 17.4543 56.492 17.4543C57.2394 17.4528 58.01 17.4528 58.7757 17.5007C59.0204 17.5162 59.8605 17.6043 60.3152 18.0822C60.641 18.4224 60.8411 18.8338 61.0345 19.2312C61.1089 19.3843 61.1834 19.5359 61.2644 19.6844V19.6875C61.4033 19.938 61.2445 20.2411 60.9485 20.2937C60.7948 20.3184 60.6426 20.3524 60.4888 20.3865C60.1184 20.4684 59.7265 20.5504 59.328 20.5504C58.7806 20.5442 58.2299 20.5102 57.6975 20.4762C57.0559 20.4391 56.3911 20.3988 55.7462 20.4081C55.6817 20.4112 55.5626 20.4607 55.4485 20.5226C55.3112 20.5983 55.2319 20.7375 55.2352 20.886C55.2815 23.099 55.341 25.5734 55.5675 27.9705C55.6998 29.3825 55.9066 30.8145 56.1083 32.2002C56.2852 33.4296 56.4688 34.6993 56.6011 35.9582C56.8359 38.1774 57.0195 40.6286 57.1815 43.669C57.3105 46.0444 57.3998 48.4601 57.4875 50.7953C57.5255 51.833 57.5668 52.8722 57.6065 53.9115C57.6429 54.759 58.0381 55.0605 59.1229 55.0605C59.2618 55.0559 59.3925 55.0605 59.5281 55.0605C62.288 55.0605 65.0744 55.0915 67.8112 55.1549C68.3371 55.1672 69.0895 55.3312 69.4648 55.7549C69.8287 56.1647 70.0684 56.6472 70.2966 57.1127C70.3859 57.2937 70.4769 57.4762 70.5728 57.6509V57.654H70.5744Z" fill="#003300"/>
<path d="M171.756 2.83059C171.69 3.70591 169.99 4.34461 169.279 4.42658L169.006 4.45751C165.12 4.89981 161.105 5.35602 157.128 5.53542C156.509 5.56171 155.886 5.59728 155.264 5.63285C152.116 5.81224 148.871 5.99628 145.67 5.17044C145.456 5.11477 145.228 5.18591 145.099 5.35448L145.094 5.36066C145.025 5.45191 144.993 5.56171 145 5.67306C145.04 6.28083 145.13 6.90562 145.216 7.50875C145.316 8.18303 145.42 8.88359 145.453 9.58261C145.577 12.1513 145.665 14.7603 145.751 17.2888C145.795 18.6173 145.842 19.9442 145.891 21.2726C145.899 21.4937 145.933 21.7226 145.969 21.9623C145.997 22.1572 146.027 22.3582 146.043 22.567C146.093 23.1717 146.167 23.5135 146.263 23.5862C146.409 23.6944 147.188 23.5862 147.48 23.5444C149.528 23.2583 151.338 23.0944 153.015 23.0449C153.852 23.0186 154.556 23.2537 155.059 23.7192C155.668 24.2805 155.962 25.1327 155.94 26.2523C155.934 26.5431 155.674 26.7719 155.365 26.758L146.61 26.3699C146.283 26.3559 146.015 26.6111 146.037 26.9173C146.063 27.2761 146.088 27.6349 146.116 27.9937C146.24 29.6299 146.364 31.3233 146.432 32.9966C146.511 34.9421 146.559 36.9216 146.602 38.8362C146.635 40.2621 146.672 41.7343 146.718 43.1834C146.759 44.4051 146.822 45.6485 146.887 46.8501C146.936 47.7873 146.983 48.7245 147.022 49.6632C147.035 49.954 147.047 50.2447 147.06 50.5385C147.121 51.8515 147.181 53.2078 147.126 54.5486C147.097 55.2878 146.713 56.1137 146.172 56.607C145.751 56.9874 145.203 57.1699 144.676 57.3478C144.467 57.4174 144.274 57.4839 144.092 57.5581C143.786 57.6865 143.429 57.5287 143.34 57.2256V57.2225C143.29 57.0493 143.232 56.8807 143.174 56.7075C143.037 56.3039 142.896 55.8863 142.842 55.4409L142.743 54.6198C142.551 53.0222 142.349 51.3721 142.303 49.7328C142.275 48.7168 142.336 47.6914 142.397 46.7017C142.447 45.8851 142.496 45.0423 142.493 44.218C142.493 43.7618 142.405 43.2947 142.309 42.7999C142.218 42.3344 142.127 41.8534 142.109 41.3585C141.972 37.5804 141.856 34.1673 141.845 30.6567C141.836 27.8746 141.646 25.7281 141.231 23.7006C140.983 22.4866 141.137 21.2247 141.289 20.0045C141.383 19.2219 141.481 18.4116 141.468 17.6414C141.431 15.8784 141.302 14.0814 141.173 12.3447C141.099 11.3023 141.02 10.2244 140.962 9.16351C140.876 7.55824 140.849 6.12618 140.879 4.78382C140.915 3.20948 141.828 2.19962 143.386 2.01713C143.779 1.97074 144.185 1.91197 144.578 1.85166C145.656 1.69391 146.778 1.52689 147.889 1.59958C152.408 1.88723 156.946 1.33667 161.338 0.806225C162.274 0.69333 163.207 0.580436 164.143 0.473727C165.841 0.280415 167.574 0.319077 169.252 0.35774H169.297C170.034 0.376298 170.693 0.640749 171.146 1.11243C171.594 1.57329 171.812 2.18106 171.763 2.82441L171.756 2.83059Z" fill="#003300"/>
<path d="M240.979 34.5693C240.969 34.8477 240.726 35.0688 240.43 35.0688H234.933C234.632 35.0688 234.389 35.2962 234.384 35.5776C234.376 36.1019 234.365 36.6153 234.351 37.121C234.307 38.915 234.265 40.6115 234.439 42.2786C234.637 44.2055 234.148 45.7629 233.022 46.7851C232.061 47.6527 230.657 48.1074 228.987 48.1074C228.597 48.1074 228.195 48.0842 227.776 48.0331C222.92 47.447 219.283 45.2247 217.261 41.6121C216.05 39.4454 215.483 36.9787 215.571 34.2801C215.62 32.8109 215.409 31.2892 215.202 29.8154C215.09 29.0096 214.971 28.173 214.896 27.3441C214.835 26.659 214.868 25.9723 214.901 25.3058C214.913 25.1001 214.921 24.8944 214.929 24.6887C214.933 24.5712 214.959 24.4614 214.99 24.3624C214.984 24.2217 214.976 24.0206 214.969 23.8799C214.215 21.97 214.491 20.0771 214.761 18.2414C214.822 17.8393 214.88 17.4356 214.929 17.0335C215.207 14.6999 216.039 12.991 217.709 11.313C219.349 9.66602 221.259 9.19744 223.105 8.74122C223.904 8.54636 224.658 8.36233 225.395 8.08705C225.668 7.98343 225.949 7.95096 226.196 7.92003C226.369 7.89992 226.535 7.87827 226.669 7.83961C228.484 7.31535 230.307 7.56743 231.669 8.53708C233.033 9.51292 233.779 11.095 233.72 12.8843C233.665 14.4447 233.529 16.0917 232.544 17.5547L232.382 17.7944L231.545 17.7975C231.276 17.7975 231.046 17.6166 231.001 17.3691C230.943 17.0428 230.874 16.7165 230.806 16.3917C230.649 15.6402 230.487 14.8623 230.445 14.0751C230.388 12.9121 230.032 12.5301 228.929 12.4389C225.478 12.1528 222.926 12.4265 220.659 13.3219C220.208 13.4998 219.635 14.2638 219.606 14.7293C219.478 16.6794 219.528 18.6852 219.576 20.6261C219.588 20.9787 219.596 21.3344 219.604 21.6885C219.621 22.471 219.667 23.269 219.712 24.0407C219.783 25.2547 219.855 26.5089 219.819 27.7523C219.698 32.1165 220.73 36.4251 221.726 40.5898L221.838 41.0584C222.169 42.4425 222.933 43.1817 224.175 43.3209C224.676 43.3751 225.182 43.4555 225.67 43.5313C226.69 43.6936 227.654 43.8452 228.603 43.7988C229.485 43.7524 230.131 43.4926 230.53 43.0194C230.978 42.4843 231.11 41.6677 230.91 40.6594C230.657 39.3928 230.536 37.9731 230.538 36.3153C230.538 35.7214 230.493 35.2838 230.282 35.0874C230.111 34.9296 229.751 34.8539 229.22 34.8616C227.724 34.8771 225.604 34.6327 224.608 32.2851V32.282C224.474 31.9712 224.691 31.6279 225.045 31.583H225.048C225.293 31.5536 225.521 31.5181 225.739 31.4871C226.191 31.4206 226.614 31.3557 227.049 31.351C227.97 31.3433 228.906 31.3479 229.812 31.351C231.092 31.3588 232.418 31.3665 233.716 31.3325C234.695 31.3093 235.673 31.1747 236.542 30.9489C237.996 30.5685 239.077 30.6582 239.841 31.2196C240.665 31.8243 241.035 32.9176 240.978 34.5708L240.979 34.5693Z" fill="#003300"/>
<path d="M212.734 46.0397C212.589 45.7211 212.451 45.4195 212.319 45.1288C212.053 44.5519 211.802 44.0045 211.578 43.4632C211.14 42.3869 210.714 41.2826 210.302 40.2156C209.44 37.984 208.549 35.6781 207.481 33.4806C205.359 29.1132 203.034 24.7537 200.785 20.5348C200.337 19.6935 199.89 18.8538 199.442 18.0125C198.129 15.5412 196.973 13.5446 195.801 11.7306C195.134 10.696 193.821 10.3403 192.887 10.4485C192.088 10.5413 191.49 10.9604 191.288 11.5729C190.641 13.5385 190.145 15.5597 189.747 17.2763C189.578 17.9924 189.464 18.7254 189.353 19.4306C189.237 20.1513 189.122 20.8952 188.951 21.6034C188.53 23.3587 188.068 25.1403 187.622 26.8584C187.29 28.142 186.946 29.4705 186.618 30.7804C186.511 31.2211 186.398 31.6603 186.287 32.1011C185.757 34.2244 185.206 36.4189 184.776 38.6026C184.644 39.2799 184.457 39.9712 184.278 40.6409C183.756 42.5972 183.213 44.62 183.78 46.7758C183.875 47.1392 184.05 47.4532 184.224 47.7563C184.293 47.88 184.361 48.0037 184.422 48.1275C184.587 48.4646 185.069 48.5311 185.332 48.2543C185.423 48.1584 185.535 48.061 185.659 47.9573C185.978 47.6852 186.339 47.3759 186.454 46.9413C186.848 45.435 187.213 43.9024 187.566 42.4162C187.901 41.0105 188.249 39.5568 188.617 38.1355C188.664 37.9623 188.708 37.7876 188.753 37.6113C189.003 36.6153 189.259 35.5915 189.755 34.7874C189.863 34.6126 190.063 34.509 190.278 34.526C190.61 34.5523 191.063 34.6312 191.379 34.6853C191.784 34.7549 192.204 34.8276 192.568 34.8554C192.672 34.8631 192.765 34.8554 192.833 34.8492L192.952 34.8446C193.78 34.8693 194.607 34.8894 195.435 34.9126C197.805 34.9714 200.257 35.0332 202.654 35.1879C203.191 35.2235 203.985 35.6982 204.058 35.9117L204.074 35.9782C204.707 38.4 205.362 40.9038 206.829 43.1384C206.834 43.1663 206.837 43.1957 206.841 43.2266C206.849 43.2962 206.857 43.3689 206.874 43.4354C207.383 45.6623 209.452 46.9336 212.265 46.7557H212.266C212.642 46.731 212.881 46.3691 212.736 46.0443L212.734 46.0397ZM194.346 15.8628C194.678 16.4722 195.022 17.1062 195.308 17.7387C196.017 19.3007 196.725 20.8967 197.41 22.4386C198.093 23.9804 198.799 25.5764 199.51 27.1384C199.751 27.6735 200.033 28.1915 200.309 28.6926C200.532 29.1024 200.76 29.5246 200.96 29.9437C201.202 30.4432 201.271 30.8345 201.147 31.0139C201.036 31.1794 200.676 31.2768 200.157 31.2861C199.406 31.2985 198.652 31.2057 197.853 31.1113C197.231 31.0371 196.59 30.9598 195.943 30.9366C195.227 30.9087 194.504 30.901 193.76 30.901C193.223 30.901 192.674 30.9056 192.112 30.9087C191.916 30.9118 191.718 30.9134 191.518 30.9149C191.171 30.918 190.906 30.6211 190.974 30.301L194.121 15.453C194.195 15.5891 194.27 15.7252 194.344 15.8628H194.346Z" fill="#003300"/>
</svg>
