<svg width="332" height="427" viewBox="0 0 332 427" fill="none" xmlns="http://www.w3.org/2000/svg">
<path d="M146.852 56.7963C151.906 55.234 164.296 47.4121 167.084 44.2551C167.075 44.3179 167.097 44.3908 167.125 44.4819C181.966 26.063 193.291 6.61523 215.825 1.56565C234.297 -2.56762 255.86 4.09906 272.442 21.307C293.754 43.3796 307.071 82.1342 315.202 113.47C318.402 125.794 320.893 138.695 319.454 150.496C317.306 168.086 306.915 180.119 297.143 191.243C290.209 199.135 290.235 206.691 297.203 217.67C309.783 237.492 321.417 259.003 327.347 282.418C341.208 337.131 318.592 392.262 284.549 414.521C253.496 434.838 210.477 429.375 176.811 399.585C151.648 377.326 132.895 343.785 119.088 309.133C116.148 301.739 113.123 293.833 107.878 288.808C103.706 284.808 98.7234 283.215 93.9474 281.398C60.3112 268.584 12.3719 228.257 2.33924 180.664C-2.27877 158.72 2.95853 137.442 10.9193 120.132C32.7829 72.5777 76.6795 45.0573 123.409 51.4292C131.871 55.4396 145.012 59.5406 146.825 56.8045" fill="#EA818B"/>
</svg>
