<svg width="46" height="46" viewBox="0 0 46 46" fill="none" xmlns="http://www.w3.org/2000/svg">
<path d="M21.1414 8.36926C19.267 8.36926 17.4694 9.11386 16.144 10.4393C14.8186 11.7646 14.074 13.5623 14.074 15.4366C14.074 17.311 14.8186 19.1087 16.144 20.434C17.4694 21.7594 19.267 22.504 21.1414 22.504C23.0157 22.504 24.8134 21.7594 26.1388 20.434C27.4641 19.1087 28.2087 17.311 28.2087 15.4366C28.2087 13.5623 27.4641 11.7646 26.1388 10.4393C24.8134 9.11386 23.0157 8.36926 21.1414 8.36926ZM12.323 24.2709C11.8577 24.269 11.3966 24.359 10.9661 24.5358C10.5357 24.7125 10.1443 24.9725 9.81457 25.3008C9.48479 25.6291 9.22307 26.0192 9.04441 26.4489C8.86575 26.8785 8.77367 27.3392 8.77344 27.8046C8.77344 30.7923 10.2452 33.045 12.5457 34.5133C14.8108 35.9568 17.8639 36.6388 21.1414 36.6388C23.016 36.6388 24.8182 36.4162 26.4419 35.9533V32.4779C25.3013 31.1886 24.6728 29.526 24.6751 27.8046C24.6751 26.5183 25.0196 25.3133 25.6203 24.2726L12.323 24.2709ZM31.7424 33.1051C33.1482 33.1051 34.4964 32.5467 35.4905 31.5526C36.4845 30.5586 37.043 29.2104 37.043 27.8046C37.043 26.3988 36.4845 25.0506 35.4905 24.0565C34.4964 23.0625 33.1482 22.504 31.7424 22.504C30.3366 22.504 28.9884 23.0625 27.9944 24.0565C27.0003 25.0506 26.4419 26.3988 26.4419 27.8046C26.4419 29.2104 27.0003 30.5586 27.9944 31.5526C28.9884 32.5467 30.3366 33.1051 31.7424 33.1051ZM31.7424 34.872C32.9833 34.8736 34.2024 34.5468 35.2761 33.9249V37.9622C35.2762 38.0403 35.2556 38.117 35.2164 38.1845C35.1771 38.252 35.1207 38.308 35.0528 38.3466C34.9849 38.3852 34.908 38.4051 34.8299 38.4043C34.7518 38.4035 34.6753 38.382 34.6083 38.342L31.7424 36.6388L28.8766 38.3438C28.8095 38.3838 28.733 38.4053 28.655 38.4061C28.5769 38.4069 28.5 38.3869 28.4321 38.3483C28.3642 38.3097 28.3078 38.2538 28.2685 38.1863C28.2293 38.1188 28.2087 38.042 28.2087 37.9639V33.9267C29.2826 34.548 30.5018 34.8741 31.7424 34.872Z" fill="#003300"/>
<circle cx="23" cy="23" r="21" stroke="#003300" stroke-width="4"/>
</svg>
