<svg width="68" height="68" viewBox="0 0 68 68" fill="none" xmlns="http://www.w3.org/2000/svg">
<path d="M31.2518 12.3721C28.4809 12.3721 25.8236 13.4728 23.8643 15.4321C21.905 17.3913 20.8043 20.0487 20.8043 22.8195C20.8043 25.5903 21.905 28.2477 23.8643 30.207C25.8236 32.1662 28.4809 33.2669 31.2518 33.2669C34.0226 33.2669 36.6799 32.1662 38.6392 30.207C40.5985 28.2477 41.6992 25.5903 41.6992 22.8195C41.6992 20.0487 40.5985 17.3913 38.6392 15.4321C36.6799 13.4728 34.0226 12.3721 31.2518 12.3721ZM18.216 35.8788C17.5281 35.8761 16.8465 36.0091 16.2101 36.2704C15.5738 36.5316 14.9953 36.9159 14.5078 37.4012C14.0203 37.8865 13.6334 38.4633 13.3693 39.0985C13.1052 39.7336 12.9691 40.4147 12.9688 41.1025C12.9688 45.5192 15.1444 48.8493 18.5451 51.0198C21.8935 53.1537 26.4068 54.1618 31.2518 54.1618C34.023 54.1618 36.687 53.8327 39.0873 53.1484V48.0109C37.4013 46.1049 36.4721 43.6472 36.4755 41.1025C36.4755 39.2011 36.9848 37.4198 37.8728 35.8814L18.216 35.8788ZM46.9229 48.9381C49.0011 48.9381 50.9941 48.1126 52.4635 46.6431C53.933 45.1737 54.7585 43.1807 54.7585 41.1025C54.7585 39.0244 53.933 37.0314 52.4635 35.5619C50.9941 34.0925 49.0011 33.2669 46.9229 33.2669C44.8448 33.2669 42.8518 34.0925 41.3823 35.5619C39.9129 37.0314 39.0873 39.0244 39.0873 41.1025C39.0873 43.1807 39.9129 45.1737 41.3823 46.6431C42.8518 48.1126 44.8448 48.9381 46.9229 48.9381ZM46.9229 51.55C48.7572 51.5524 50.5594 51.0694 52.1466 50.15V56.1181C52.1468 56.2336 52.1163 56.347 52.0583 56.4468C52.0003 56.5466 51.9169 56.6293 51.8165 56.6864C51.7162 56.7434 51.6025 56.7729 51.487 56.7717C51.3716 56.7705 51.2585 56.7388 51.1594 56.6797L46.9229 54.1618L42.6865 56.6823C42.5873 56.7414 42.4743 56.7731 42.3588 56.7743C42.2434 56.7755 42.1297 56.746 42.0293 56.689C41.929 56.6319 41.8456 56.5492 41.7876 56.4494C41.7296 56.3496 41.6991 56.2362 41.6992 56.1207V50.1526C43.2867 51.0711 45.0889 51.5532 46.9229 51.55Z" fill="#003300"/>
<circle cx="34" cy="34" r="31.5" stroke="#003300" stroke-width="5"/>
</svg>
