<svg width="22" height="21" viewBox="0 0 22 21" fill="none" xmlns="http://www.w3.org/2000/svg">
<path d="M14.1725 8.01056L13.565 7.90951C13.5503 7.99774 13.555 8.08812 13.5788 8.17435C13.6026 8.26057 13.6448 8.34059 13.7026 8.40884C13.7605 8.4771 13.8324 8.53194 13.9136 8.56957C13.9947 8.60721 14.0831 8.62672 14.1725 8.62676V8.01056ZM0.616197 8.01056V7.39437C0.452771 7.39437 0.296039 7.45929 0.18048 7.57485C0.0649207 7.69041 0 7.84714 0 8.01056H0.616197ZM3.08099 20.9507H17.081V19.7183H3.08099V20.9507ZM18.5599 7.39437H14.1725V8.62676H18.5599V7.39437ZM14.7801 8.11162L15.7734 2.15299L14.5583 1.94965L13.565 7.90951L14.7801 8.11162ZM13.9507 4.82662e-08H13.6882V1.23239H13.9507V4.82662e-08ZM10.0982 1.9213L6.99753 6.57113L8.02289 7.25511L11.1224 2.60405L10.0982 1.9213ZM5.45951 7.39437H0.616197V8.62676H5.45951V7.39437ZM0 8.01056V17.8697H1.23239V8.01056H0ZM20.1028 18.4736L21.5817 11.0792L20.3739 10.8377L18.8951 18.232L20.1028 18.4736ZM6.99753 6.57113C6.82874 6.82434 6.60004 7.03197 6.33174 7.17558C6.06343 7.31919 5.76383 7.39434 5.45951 7.39437V8.62676C5.96667 8.62677 6.46599 8.50158 6.91316 8.2623C7.36033 8.02302 7.74151 7.67706 8.02289 7.25511L6.99753 6.57113ZM15.7734 2.15299C15.8176 1.88819 15.8036 1.61694 15.7324 1.3581C15.6612 1.09926 15.5344 0.859043 15.3609 0.654146C15.1875 0.449249 14.9715 0.284594 14.7279 0.171627C14.4844 0.0586602 14.2192 9.38126e-05 13.9507 4.82662e-08V1.23239C14.0403 1.23226 14.1288 1.25164 14.2101 1.28919C14.2914 1.32675 14.3635 1.38157 14.4214 1.44984C14.4794 1.51811 14.5218 1.5982 14.5456 1.68451C14.5694 1.77083 14.5742 1.86131 14.5595 1.94965L15.7734 2.15299ZM18.5599 8.62676C18.8334 8.62674 19.1034 8.68741 19.3507 8.80439C19.5979 8.92137 19.816 9.09175 19.9895 9.30324C20.1629 9.51473 20.2872 9.76206 20.3535 10.0274C20.4197 10.2927 20.4275 10.5695 20.3739 10.8377L21.5817 11.0792C21.671 10.6324 21.6589 10.1714 21.5485 9.72926C21.4382 9.28718 21.2312 8.87506 20.9424 8.52262C20.6536 8.17018 20.2902 7.88617 19.8784 7.69108C19.4667 7.49598 19.0167 7.39464 18.5611 7.39437L18.5599 8.62676ZM17.081 20.9507C17.7934 20.9508 18.4838 20.7041 19.0348 20.2525C19.5858 19.8008 19.9632 19.1722 20.1028 18.4736L18.8951 18.232C18.8113 18.6514 18.5847 19.0287 18.2539 19.2997C17.9231 19.5707 17.5086 19.7186 17.081 19.7183V20.9507ZM13.687 4.82662e-08C12.9766 -0.000106203 12.2773 0.175213 11.651 0.510388C11.0247 0.845562 10.4909 1.33022 10.097 1.9213L11.1224 2.60405C11.4037 2.1821 11.7849 1.83613 12.2321 1.59685C12.6793 1.35758 13.1786 1.23239 13.6857 1.23239L13.687 4.82662e-08ZM3.08099 19.7183C2.59071 19.7183 2.12051 19.5235 1.77383 19.1769C1.42716 18.8302 1.23239 18.36 1.23239 17.8697H0C0 18.2743 0.0796921 18.675 0.234526 19.0488C0.38936 19.4226 0.616304 19.7622 0.9024 20.0483C1.1885 20.3344 1.52814 20.5613 1.90194 20.7162C2.27575 20.871 2.67638 20.9507 3.08099 20.9507V19.7183Z" fill="#003300"/>
<path d="M5.54492 8.01057V20.3345V8.01057Z" fill="#003300"/>
<path d="M5.54492 8.01057V20.3345" stroke="#003300" stroke-width="1.1831"/>
</svg>
