<svg width="29" height="26" viewBox="0 0 29 26" fill="none" xmlns="http://www.w3.org/2000/svg">
<path d="M0.75219 25.937C0.532613 25.8603 0.342115 25.7162 0.207273 25.5245C0.0724313 25.3329 -2.9252e-05 25.1034 8.85857e-09 24.8681C8.85857e-09 19.7037 1.02337 15.5736 3.04292 12.5915C5.48283 8.98847 9.33162 7.04847 14.5001 6.80756V1.13027C14.5001 0.908933 14.5642 0.692469 14.6845 0.507734C14.8048 0.323 14.976 0.178124 15.1768 0.091079C15.3776 0.00403424 15.5992 -0.0213486 15.8141 0.0180791C16.029 0.0575067 16.2278 0.16001 16.3858 0.312873L28.655 12.1818C28.7641 12.2873 28.8508 12.4142 28.9101 12.5547C28.9694 12.6952 29 12.8464 29 12.9992C29 13.152 28.9694 13.3032 28.9101 13.4437C28.8508 13.5842 28.7641 13.711 28.655 13.8166L16.3858 25.6855C16.2278 25.8383 16.029 25.9408 15.8141 25.9803C15.5992 26.0197 15.3776 25.9943 15.1768 25.9073C14.976 25.8202 14.8048 25.6753 14.6845 25.4906C14.5642 25.3059 14.5001 25.0894 14.5001 24.8681V19.2325C11.363 19.3285 8.99282 19.8436 7.10572 20.8319C5.06665 21.9001 3.58807 23.4961 1.99445 25.5654C1.85149 25.7509 1.65495 25.8866 1.43225 25.9534C1.20955 26.0203 0.971802 26.015 0.75219 25.9384V25.937Z" fill="#1E2B1E"/>
</svg>
